<?xml version="1.0" standalone="no"?>
<!DOCTYPE svg PUBLIC "-//W3C//DTD SVG 1.1//EN" "http://www.w3.org/Graphics/SVG/1.1/DTD/svg11.dtd" >
<svg xmlns="http://www.w3.org/2000/svg" xmlns:xlink="http://www.w3.org/1999/xlink" version="1.1">
<metadata>
Created by FontForge 20170731 at Thu Aug 20 04:46:26 2020
 By Aleksey,,,
copyright missing
</metadata>
<defs>
<font id="NuevoEspiritu" horiz-adv-x="1564" >
  <font-face 
    font-family="NuevoEspiritu"
    font-weight="400"
    font-stretch="normal"
    units-per-em="2048"
    panose-1="2 0 5 3 0 0 0 0 0 0"
    ascent="1536"
    descent="-512"
    cap-height="1679"
    bbox="-82 -758 2079 2263"
    underline-thickness="100"
    underline-position="-302"
    unicode-range="U+0020-201D"
  />
<missing-glyph horiz-adv-x="1024" 
 />
    <glyph glyph-name=".notdef" horiz-adv-x="1024" 
 />
    <glyph glyph-name=".null" horiz-adv-x="0" 
 />
    <glyph glyph-name="nonmarkingreturn" horiz-adv-x="682" 
 />
    <glyph glyph-name="space" unicode=" " horiz-adv-x="776" 
 />
    <glyph glyph-name="exclam" unicode="!" horiz-adv-x="737" 
d="M227 1638h287v-1511h-287v1511zM164 -154q0 85 61 145t146 60t144.5 -60t59.5 -145t-59.5 -145.5t-144.5 -60.5t-146 60.5t-61 145.5z" />
    <glyph glyph-name="quotedbl" unicode="&#x22;" horiz-adv-x="645" 
d="M61 1679h211v-514h-211v514zM373 1679h211v-514h-211v514z" />
    <glyph glyph-name="numbersign" unicode="#" horiz-adv-x="1853" 
d="M1608 930v-209h-217l-37 -219h254v-213l-285 -2l-104 -699h-297l114 701l-319 -2l-105 -699h-297l115 701h-182v213h215l31 219h-246v209h282l105 686h285l-105 -686h322l102 686h279l-103 -686h193z" />
    <glyph glyph-name="dollar" unicode="$" horiz-adv-x="776" 
d="M61 424h162q0 -78 80 -117v420q-123 102 -164.5 155t-60.5 146q-6 21 -6 45q0 60 37 158q32 53 82.5 92.5t111.5 60.5v152h170v-137q10 -6 16 -6q104 -28 164.5 -102t61.5 -179v-4h-166q-3 91 -76 119v-455q19 -16 46 -37.5t45 -37t28 -27.5q26 -30 53 -68
q41 -84 41 -115q6 -21 6 -45q0 -85 -30 -143q-69 -138 -189 -170v-129h-170v129h-14q-102 28 -164.5 106.5t-63.5 182.5v6zM262 1155q-24 -39 -24 -88q0 -77 65 -156v289q-29 -26 -41 -45zM473 584v-262q32 28 45 53q19 37 19 92q0 32 -13.5 61t-28 43.5t-20.5 14.5
q-2 0 -2 -2z" />
    <glyph glyph-name="percent" unicode="%" horiz-adv-x="2134" 
d="M641 -377h-291l1096 2015l285 -6zM-2 1122q0 138 100 239t238 101q139 0 243.5 -101.5t104.5 -238.5t-104.5 -238.5t-243.5 -101.5q-138 0 -238 101t-100 239zM1389 174q0 138 98.5 238t236.5 100q91 0 173 -45.5t132 -124t50 -168.5q0 -138 -108.5 -244t-246.5 -106
q-137 0 -236 105.5t-99 244.5z" />
    <glyph glyph-name="ampersand" unicode="&#x26;" horiz-adv-x="1470" 
d="M1409 168v-168q-182 9 -262 39q-100 39 -164 82q-174 -141 -451 -141q-56 0 -111 6.5t-83.5 13t-38.5 10.5q-44 19 -83.5 46.5t-75.5 67t-57.5 94t-21.5 116.5q0 79 35 164q20 49 79 109t120 104q23 19 115 75q-97 190 -97 357q0 131 60 227q54 96 152.5 151.5
t211.5 55.5q67 0 119 -16q122 -34 197 -127t75 -217v-19q-4 -76 -42.5 -127.5t-100.5 -97.5q-83 -76 -321 -230q73 -115 206 -258q15 -17 105 -102q84 103 121 154h196q-1 -4 -4.5 -12t-17 -34.5t-31.5 -55t-51 -72t-74 -87.5q153 -97 295 -108zM575 907l9 -20q69 40 114 69
t95 66.5t80 73.5t42 73q0 4 1.5 12t1.5 11v8q0 122 -121 160q-24 8 -60 8q-55 0 -105 -25.5t-79 -76.5q-29 -53 -29 -133q0 -112 51 -226zM453 143q8 0 24.5 -1t24.5 -1q9 0 30 1t31 1q162 0 271 90q-91 84 -142 144l-4 4q-124 151 -192 254q-164 -110 -211 -182
q-39 -65 -39 -131t47.5 -117t159.5 -62z" />
    <glyph glyph-name="quotesingle" unicode="'" horiz-adv-x="458" 
d="M39 1688q0 91 61.5 154t151.5 63q91 0 154 -63t63 -154q0 -44 -20 -89l-3 -4q-18 -40 -63 -73l-262 -314l-164 144l152 178q-70 60 -70 158z" />
    <glyph glyph-name="parenleft" unicode="(" horiz-adv-x="499" 
d="M438 197v-197q-73 1 -139.5 30t-120 84t-85.5 144t-32 201v639q0 24 2.5 52t11.5 71t24.5 82.5t44.5 81.5t67 73t96.5 53t130.5 25v-203q-45 0 -78 -19t-49.5 -44.5t-26.5 -60t-12 -56t-2 -41.5l-12 -618v-43q0 -114 53 -180.5t127 -73.5z" />
    <glyph glyph-name="parenright" unicode=")" horiz-adv-x="755" 
d="M123 0v197q74 7 127 73.5t53 180.5v663q0 24 -6.5 54.5t-23.5 70.5t-56 67t-94 27v203q72 -3 131 -25t97 -53t67 -73t44 -81t24 -82t11.5 -70.5t2.5 -51.5v-641q0 -112 -32 -201t-85.5 -144t-120 -84t-139.5 -30z" />
    <glyph glyph-name="asterisk" unicode="*" horiz-adv-x="555" 
d="M332 1755l100 98l103 -124l-175 -148l175 -133l-103 -117l-100 99v-164h-154v164l-90 -99l-115 117l172 133l-172 148l115 124l90 -98v160h154v-160z" />
    <glyph glyph-name="plus" unicode="+" horiz-adv-x="1107" 
d="M666 604h338v-215h-338v-346h-215v346h-347v215h347v338h215v-338z" />
    <glyph glyph-name="comma" unicode="," horiz-adv-x="632" 
d="M367 -227l163 -142l-327 -389l-164 142z" />
    <glyph glyph-name="hyphen" unicode="-" horiz-adv-x="727" 
d="M627 721v-211h-514v211h514z" />
    <glyph glyph-name="period" unicode="." horiz-adv-x="512" 
d="M43 -215q0 91 62 153t153 62t152 -62t61 -153t-61 -153t-152 -62t-153 62t-62 153z" />
    <glyph glyph-name="slash" unicode="/" horiz-adv-x="573" 
d="M279 0h-218l234 1536h217z" />
    <glyph glyph-name="zero" unicode="0" horiz-adv-x="706" 
d="M356 1577h4q118 0 201.5 -85.5t83.5 -205.5v-1034q0 -119 -85.5 -206t-203.5 -87q-121 0 -208 87t-87 206v1034q0 120 86.5 205.5t208.5 85.5zM426 252v1032q0 31 -20.5 51.5t-49.5 20.5q-31 0 -52 -20.5t-21 -51.5v-1032q0 -30 21.5 -51t51.5 -21q29 0 49.5 21.5
t20.5 50.5z" />
    <glyph glyph-name="one" unicode="1" horiz-adv-x="528" 
d="M250 1536h217v-1536h-217v1399q-11 -21 -61.5 -89.5t-79.5 -88.5l-48 43q62 62 109 130t64 105z" />
    <glyph glyph-name="two" unicode="2" horiz-adv-x="954" 
d="M782 0h-721v219l37 31q216 210 345 365.5t188 295.5q51 121 51 224q0 69 -35 133q-26 50 -76 75t-108 25q-9 0 -28 -4.5t-25 -5.5q-22 -7 -39.5 -15.5t-38.5 -25.5t-33 -46t-12 -67v-12q0 -23 7 -40t16 -25.5t23 -13.5t24 -6t24 -1h10v-211q-147 0 -230 88t-83 207v6
q0 129 74 230.5t198 134.5q45 16 113 16q115 0 214.5 -55.5t156.5 -149.5q59 -104 59 -227q0 -383 -541 -934h430v-211z" />
    <glyph glyph-name="three" unicode="3" horiz-adv-x="1013" 
d="M952 479q0 -127 -39 -229t-104 -164t-144.5 -94.5t-166.5 -32.5q-80 0 -155 26.5t-136.5 76.5t-101 129t-44.5 176h220q17 -87 80.5 -139t142.5 -52q44 0 85 19.5t76 58.5t56 105t22 151v22q0 28 -3 58t-17 80t-37.5 87t-70.5 65t-111 28l-139 -8l204 487h-389v207h709
l-221 -508q156 -58 237 -248q47 -121 47 -243v-58z" />
    <glyph glyph-name="four" unicode="4" horiz-adv-x="905" 
d="M674 520h170v-209h-170v-311h-201v311h-412v209l355 1016h258v-1016zM473 520v598l-182 -598h182z" />
    <glyph glyph-name="five" unicode="5" horiz-adv-x="976" 
d="M915 539q0 -134 -36 -245.5t-96 -183.5t-136 -111.5t-158 -39.5q-135 0 -253 111.5t-175 324.5h220q22 -102 79 -157.5t127 -55.5q90 0 150.5 92t60.5 263v24q0 29 -1.5 55t-7.5 72.5t-20 83t-36 72.5t-59.5 56t-86.5 20h-206v616h559v-207l-353 -8v-209h2
q85 0 153.5 -23t112 -57t75.5 -85.5t48 -96t25 -100.5t10.5 -88t1.5 -70v-53z" />
    <glyph glyph-name="six" unicode="6" horiz-adv-x="937" 
d="M270 1130v-196q70 37 199 37h4q78 0 142 -21.5t105 -55t71.5 -80t46.5 -89t25.5 -91t11.5 -77t2 -55.5v-64q0 -115 -36 -208t-95.5 -151t-133 -89t-151.5 -31q-80 0 -150.5 29t-127 86.5t-89.5 152t-33 215.5v674q0 26 2.5 54.5t12 75.5t25.5 88t47 86.5t72.5 78
t105.5 54.5t143 24h6q78 0 146 -31.5t111 -79.5t67.5 -102.5t25.5 -103.5h-213q-13 44 -55 75t-98 31h-6q-40 0 -71.5 -13.5t-50.5 -36.5t-32 -48.5t-19 -54t-8 -47.5t-2 -36zM270 481v-47q0 -122 61.5 -196t139.5 -74q82 0 139.5 78.5t57.5 224.5v25q0 5 -1 14.5t-5.5 36.5
t-12 51.5t-22.5 54.5t-34.5 51.5t-51.5 36.5t-70 15h-2q-51 0 -90 -23.5t-59 -56t-32 -74t-15 -68.5t-3 -49z" />
    <glyph glyph-name="seven" unicode="7" horiz-adv-x="915" 
d="M61 1536h793l-279 -1536h-213l242 1325h-543v211z" />
    <glyph glyph-name="eight" unicode="8" horiz-adv-x="950" 
d="M61 477v33q0 38 5 79.5t19.5 102.5t49.5 119.5t86 99.5q-78 92 -78 275v26q0 20 2 43.5t10 61t21.5 71t39 69t59 61.5t85.5 42.5t115 16.5t114.5 -15.5t84.5 -39.5t57.5 -58t37 -65t20 -68t9 -59t1.5 -45v-41q0 -143 -86 -275q57 -39 95.5 -97t54 -119.5t21 -103.5
t5.5 -81v-80q-4 -127 -39.5 -220.5t-96 -147t-131.5 -78.5t-155 -25q-81 0 -152 31t-129 92t-91.5 163t-33.5 232zM467 1358q-39 0 -65.5 -17.5t-37 -45t-13.5 -46.5t-3 -37v-6q1 -49 14.5 -83.5t33.5 -49.5t36.5 -20.5t30.5 -5.5h14q15 0 31.5 5.5t37.5 20.5t34.5 49.5
t13.5 83.5v6q0 17 -3.5 36t-14 47t-36.5 45.5t-65 17.5h-8zM274 483v-47q0 -123 62 -197.5t141 -74.5t138 79t59 224v27q0 5 -1 14.5t-6 37t-12 52t-22.5 55t-35.5 52t-52 36.5t-70 15q-51 0 -90 -24t-59 -56.5t-32.5 -74t-16 -69t-3.5 -49.5z" />
    <glyph glyph-name="nine" unicode="9" horiz-adv-x="944" 
d="M670 403v199q-80 -39 -185 -39q-78 0 -143 21.5t-108 55.5t-75.5 80.5t-50.5 91t-29.5 91.5t-14.5 78.5t-3 56.5v60q0 114 37 207.5t98 151.5t135.5 89t153.5 31q78 0 148 -31t126.5 -89.5t90 -154.5t33.5 -215v-667q0 -27 -2 -55.5t-11 -76.5t-24 -89.5t-45.5 -87
t-71 -78t-103.5 -53.5t-141 -21h-10q-80 1 -148.5 32.5t-112 79.5t-68 102t-25.5 103h211q11 -42 53.5 -73t99.5 -31h4q46 0 81.5 20t53.5 47.5t29 62.5t14 58.5t3 42.5zM670 1053v41q0 125 -59.5 200.5t-141.5 75.5q-81 0 -138 -73.5t-57 -217.5v-24q0 -23 3 -50.5
t15 -70.5t31.5 -76t58 -57.5t89.5 -24.5h4q42 0 76 16.5t54 44t34 57.5t20 64t8.5 55.5t2.5 39.5z" />
    <glyph glyph-name="colon" unicode=":" horiz-adv-x="696" 
d="M197 911q0 91 62 152t153 61t154 -61.5t63 -151.5q0 -91 -63 -153t-154 -62t-153 62t-62 153zM197 328q0 91 62 154t153 63t154 -63t63 -154t-63 -153t-154 -62t-153 62t-62 153z" />
    <glyph glyph-name="semicolon" unicode=";" horiz-adv-x="598" 
d="M143 328q0 91 62 154t153 63t153 -63t62 -154q0 -90 -61.5 -148.5t-153.5 -58.5t-153.5 58.5t-61.5 148.5zM367 -227l163 -142l-327 -389l-164 142z" />
    <glyph glyph-name="less" unicode="&#x3c;" horiz-adv-x="1107" 
d="M829 1176l136 -164l-492 -408l492 -409l-136 -164l-686 565z" />
    <glyph glyph-name="equal" unicode="=" horiz-adv-x="737" 
d="M633 973v-215h-512v215h512zM633 545v-217h-512v217h512z" />
    <glyph glyph-name="greater" unicode="&#x3e;" horiz-adv-x="1107" 
d="M285 1176l680 -580l-680 -565l-142 164l492 409l-492 408z" />
    <glyph glyph-name="question" unicode="?" horiz-adv-x="1009" 
d="M948 1229v-4q0 -31 -7 -71.5t-29 -97.5t-55.5 -105t-94 -88t-137.5 -52v-446h-228v657h121q54 5 94 28t59.5 54.5t28.5 61t9 55.5q0 69 -20 109.5t-66 78.5q-33 29 -101 29q-35 0 -69 -13.5t-68.5 -44t-61.5 -89.5t-40 -140h-4h-216h-2q3 106 28 191.5t59.5 139
t81.5 93.5t87 59t83.5 30t63.5 13t34 2h53q38 0 92 -18.5t94 -42.5q204 -120 211 -389zM678 129q0 -71 -47.5 -120.5t-114.5 -49.5q-65 0 -112.5 50t-47.5 120t47.5 121t112.5 51q67 0 114.5 -50.5t47.5 -121.5z" />
    <glyph glyph-name="at" unicode="@" horiz-adv-x="1064" 
d="M598 1577h8q75 -2 137 -23.5t102.5 -53t71 -75t46.5 -84t26 -85t12.5 -73t2.5 -53.5l-7 -772h-401q-116 0 -181.5 67t-68.5 161v10q0 105 58.5 182t158.5 105q46 12 90 12q77 0 138 -27v107v172v29q0 71 -41 120q-73 76 -172 76h-15q-84 0 -142 -18t-87 -41t-44 -69.5
t-17.5 -77.5t-2.5 -91v-4l-6 -678l-2 -20q0 -61 16 -105.5t38.5 -68.5t57 -37.5t62.5 -17t64 -3.5q8 0 24 1t25 1h6q59 0 101.5 7t65.5 16.5t38.5 28t21 32t11.5 37.5l206 2q-1 -37 -15.5 -78.5t-43.5 -82t-67.5 -73t-92.5 -53t-114 -20.5h-209q-76 2 -138.5 24t-102.5 53.5
t-70.5 75t-46 83.5t-25 85.5t-11.5 73.5t-2 54v641q0 66 4.5 119t17.5 109t35 99t58 82t85.5 64t119 40t156.5 15q41 0 61 -2v2zM514 596v-4q1 -24 16 -39.5t41 -23t53 -10.5t64 -3q22 0 58.5 1t50.5 1q0 16 -1 52t-1 55q0 50 -39 75q-50 31 -101 31q-27 0 -45 -6
q-96 -27 -96 -129z" />
    <glyph glyph-name="A" unicode="A" horiz-adv-x="1148" 
d="M846 1536l241 -1536h-395l-35 233h-168l-32 -233h-396l240 1536h545zM518 510h100l-28 219h-35z" />
    <glyph glyph-name="B" unicode="B" horiz-adv-x="1081" 
d="M852 760q30 -17 39 -25q63 -54 96 -161t31 -189q0 -38 -7 -79t-34 -99t-71.5 -101t-129 -74.5t-196.5 -31.5h-19h-500v1536h500h17q80 0 146 -16.5t109.5 -42t77.5 -62.5t52.5 -70.5t31 -74t17 -65.5t6.5 -52q8 -100 -25.5 -207.5t-101.5 -161.5q-8 -6 -39 -24zM453 907
h106h4q29 0 49.5 8.5t28.5 21t11 22t3 18.5v6v53v8q0 12 -3 24.5t-11.5 29t-29 27t-50.5 10.5h-2h-106v-228zM453 399h106h4q29 0 49.5 8.5t28.5 21.5t11 23t3 19v6v55v7q0 8 -3 17t-11 21t-28.5 19.5t-49.5 7.5h-4h-106v-205z" />
    <glyph glyph-name="C" unicode="C" horiz-adv-x="1064" 
d="M61 412v716v15q0 23 2.5 49t13 71t28.5 84.5t53.5 83t83 74.5t122 51.5t166.5 20.5h15h8q92 0 166 -20.5t121.5 -51.5t82.5 -75t52.5 -83t28 -84.5t12.5 -70.5t2 -49v-189h-381v187q0 3 -0.5 8.5t-6 17t-14 21t-26.5 17t-43 7.5h-15q-29 0 -48 -8.5t-27 -21.5t-10.5 -22
t-2.5 -17v-2v-744q0 -8 2.5 -16.5t10.5 -22t29.5 -22t52.5 -8.5h6q25 0 44 6.5t27.5 15t13.5 20t6 17t1 10.5v185h381v-185q0 -20 -1.5 -41t-10.5 -67.5t-25.5 -86t-51.5 -86.5t-82 -79.5t-123.5 -55t-170.5 -22.5h-8h-15q-92 0 -166.5 20.5t-122 52t-83 75t-53.5 83.5
t-28.5 85t-13 71t-2.5 49v17z" />
    <glyph glyph-name="D" unicode="D" horiz-adv-x="1077" 
d="M1016 1096v-660v-12q0 -21 -2.5 -45.5t-13 -68t-28 -82.5t-53 -82t-82 -74t-120.5 -51.5t-164 -20.5h-16h-476v1536h476h16q90 0 164 -20.5t120.5 -52t82 -75t53 -83t28 -83.5t13 -68.5t2.5 -45.5v-12zM631 434v668q0 8 -2.5 16.5t-10.5 22t-29 22t-52 8.5h-2h-95v-813
h97q26 0 45 7t28 16.5t14 21.5t6 18t1 11v2z" />
    <glyph glyph-name="E" unicode="E" horiz-adv-x="1017" 
d="M440 1149v-217h342v-361h-342v-184h516v-387h-895v1536h826v-387h-447z" />
    <glyph glyph-name="F" unicode="F" horiz-adv-x="942" 
d="M881 1536v-387h-441v-217h340v-361h-340v-571h-379v1536h820z" />
    <glyph glyph-name="G" unicode="G" horiz-adv-x="1085" 
d="M543 -41h-17q-94 0 -170 22t-123.5 55t-82 80t-51 86.5t-26 86t-11 68t-1.5 42.5v2v727v15q0 24 2.5 50.5t13 71t28.5 84t53.5 83t82.5 74.5t121 51t164 20h17h16q92 0 167 -20.5t122 -52t82 -76t52.5 -83.5t27.5 -85t12 -70.5t2 -48.5v-189h-387v187q0 4 -1 10t-6 18
t-14 21t-28 16.5t-45 7.5q-27 0 -47.5 -8.5t-30 -21t-15 -25t-6.5 -21.5v-8v-731q0 -3 0.5 -7.5t6 -17t15 -22t30 -17t47.5 -7.5q26 0 45 7t28 16.5t14 21t6 17t1 9.5v13h-94v360h481v-360v-17q0 -23 -2.5 -49t-13 -70.5t-28.5 -84.5t-53.5 -83.5t-83 -74.5t-121.5 -51.5
t-165 -20.5h-14z" />
    <glyph glyph-name="H" unicode="H" horiz-adv-x="1124" 
d="M662 932v604h401v-1536h-401v571h-203v-571h-398v1536h398v-604h203z" />
    <glyph glyph-name="I" unicode="I" horiz-adv-x="485" 
d="M61 1499q0 75 53 127.5t128 52.5q74 0 128 -53t54 -127q0 -72 -54.5 -127t-127.5 -55q-74 0 -127.5 54.5t-53.5 127.5zM66 0v1255h358v-1255h-358z" />
    <glyph glyph-name="J" unicode="J" horiz-adv-x="1044" 
d="M983 1536v-1133q0 -226 -109.5 -335t-332.5 -109h-15h-16q-91 0 -164.5 22.5t-119 56t-79.5 81t-49.5 87t-24.5 86.5t-10.5 67.5t-1.5 39.5v176h373v-180q0 -3 0.5 -8t5.5 -17.5t13.5 -22t27.5 -17.5t45 -8q28 0 47.5 8.5t27.5 22t10.5 22.5t2.5 16v4v1141h369z" />
    <glyph glyph-name="K" unicode="K" horiz-adv-x="1017" 
d="M440 0h-379v1536h379v-696l125 696h391l-141 -772l139 -762l-389 -2l-125 690v-690z" />
    <glyph glyph-name="L" unicode="L" horiz-adv-x="1077" 
d="M61 1536h412v-1141h543v-395h-955v1536z" />
    <glyph glyph-name="M" unicode="M" horiz-adv-x="1290" 
d="M645 1110l113 426h471v-1536h-381v612l-201 -612h-2l-203 612v-612h-381v1536h480z" />
    <glyph glyph-name="N" unicode="N" horiz-adv-x="1126" 
d="M440 0h-379v1536h476l151 -573v573h377v-1536h-428l-197 639v-639z" />
    <glyph glyph-name="O" unicode="O" horiz-adv-x="1083" 
d="M1022 395q0 -24 -2.5 -50.5t-13 -71.5t-28 -84.5t-52.5 -83t-82 -74.5t-120 -51.5t-163 -20.5h-33q-89 0 -162 19.5t-120.5 49.5t-83 72t-54.5 81.5t-30 83.5t-14 71.5t-3 52.5v756q0 23 2.5 48.5t13 70t28.5 84t53.5 83t82.5 74.5t121.5 51.5t165.5 20.5h33
q90 0 163 -20t120 -51t82 -74.5t52.5 -82.5t28 -84t13 -70.5t2.5 -49.5v-750zM635 399v742q0 8 -2 17t-9.5 23.5t-27.5 23.5t-51 9q-26 0 -45 -7.5t-28 -16.5t-14 -21t-6 -18t-1 -10v-742q0 -4 1 -9.5t6 -18t14 -22.5t28 -17.5t45 -7.5q25 0 43 7.5t26.5 16.5t14 21.5
t6 18.5t0.5 11z" />
    <glyph glyph-name="P" unicode="P" horiz-adv-x="1130" 
d="M1069 1096v-97v-18q0 -24 -2.5 -50t-14 -69.5t-30 -82t-55 -80.5t-85.5 -71.5t-125 -49t-169 -19.5h-17h-108v-559h-402v1536h510h2q95 0 173 -18.5t128 -47.5t88 -69.5t58 -78t31.5 -80.5t14.5 -70t3 -52v-24zM463 946h106h4q33 0 55 9.5t30.5 24t11 23.5t2.5 17v2v49v2
q0 9 -3 19t-11.5 23.5t-30.5 22.5t-54 9h-4h-106v-201z" />
    <glyph glyph-name="Q" unicode="Q" horiz-adv-x="1230" 
d="M551 1573h16q92 0 167 -20.5t123 -52.5t84 -76t54.5 -84.5t29 -86.5t13 -72.5t2.5 -50.5v-729l177 -176l-267 -266l-82 80l-2 -2q-119 -78 -315 -78h-2q-96 0 -175 22.5t-128.5 56.5t-86 81t-55 89t-29 88.5t-12.5 70t-2 43.5v6v700v14q0 24 2.5 50.5t13.5 72.5t29 86.5
t54 84.5t84 76t123.5 52.5t167.5 20.5h16zM651 408v722q0 4 -1 10t-6 18.5t-14.5 22t-29.5 17.5t-47 8t-47 -8t-29.5 -17.5t-14.5 -22t-6 -18.5t-1 -10v-722q0 -4 1 -9.5t6 -17.5t14.5 -21t29.5 -16.5t47 -7.5t47 7.5t29.5 16.5t14.5 21t6 17.5t1 9.5z" />
    <glyph glyph-name="R" unicode="R" horiz-adv-x="1071" 
d="M1010 600v-600h-379v528v2q0 7 -2.5 16t-10 23.5t-27 24t-48.5 10.5h-107v-604h-375v1536h482h2q83 0 150.5 -16.5t111 -40t77.5 -61t51 -67.5t29 -73t15 -63t6 -52v-4q0 -10 -1 -26.5t-8 -57.5t-19 -79.5t-37 -86t-60 -84.5q-8 -9 -19.5 -12.5t-15.5 -5.5
q37 -3 67.5 -16t49 -30t32.5 -39.5t20.5 -41.5t10.5 -39t4.5 -28t0.5 -13zM436 948h99h4q27 0 46.5 8t28.5 19t14.5 22t5.5 19l1 8v47q0 3 -0.5 8.5t-6 19t-14.5 23.5t-28.5 18.5t-46.5 8.5h-4h-99v-201z" />
    <glyph glyph-name="S" unicode="S" horiz-adv-x="1175" 
d="M61 520h379q6 -45 23 -79t38 -50.5t40.5 -26.5t32.5 -12l14 -2h2q37 0 62 12.5t34.5 32t12.5 32t3 22.5v2q3 10 3 18q0 17 -5 34t-18 39.5t-43.5 42t-75.5 31.5l-33 11q-45 16 -94 36t-76 32l-26 12q-191 86 -225 372v21q0 22 2 46.5t10 65.5t21.5 78.5t40 81t61.5 79
t89 66.5t120 48q49 12 110 12h68q42 0 86 -10q72 -16 130.5 -46.5t96 -65.5t65.5 -79t42.5 -82t23 -79.5t10.5 -66.5t2 -48v-21h-354q-4 38 -18.5 66t-30 41t-34 21t-27.5 9t-15 1h-2q-28 0 -49 -7.5t-31 -17t-16 -21.5t-7 -18.5t-1 -11.5v-15q0 -18 3 -36.5t17 -45.5
t37 -47.5t68.5 -37t105.5 -19.5q186 -23 282 -133t111 -305q-1 -29 -3 -55t-12.5 -78.5t-27.5 -96.5t-51.5 -97.5t-80.5 -93.5t-119 -73t-162 -47q-7 0 -22.5 -1t-22.5 -1h-70q-39 0 -55 2q-85 14 -155 47.5t-114.5 74.5t-78 93t-50 97.5t-27 95.5t-12.5 78.5t-2 54.5v18z
" />
    <glyph glyph-name="T" unicode="T" horiz-adv-x="1140" 
d="M1079 1141h-321v-1141h-377v1141h-320v395h1018v-395z" />
    <glyph glyph-name="U" unicode="U" horiz-adv-x="1099" 
d="M547 -41h-15q-91 0 -165.5 20t-122.5 50.5t-83.5 74t-54 83t-29.5 85t-13.5 72.5t-2.5 53v17v1122h392v-1124q0 -4 0.5 -10t5.5 -19.5t14 -23.5t28.5 -18.5t45.5 -8.5q27 0 47.5 8t30 20t16 24t7.5 20l1 8v1124h389v-1122v-13q0 -24 -2 -49.5t-12.5 -71.5t-28.5 -86
t-54 -85t-84.5 -76.5t-124.5 -52.5t-169 -21h-16z" />
    <glyph glyph-name="V" unicode="V" horiz-adv-x="1150" 
d="M575 852l125 684h390l-283 -1536h-465l-281 1536h388z" />
    <glyph glyph-name="W" unicode="W" horiz-adv-x="1404" 
d="M795 0l-90 481l-93 -481h-264l-287 1536h388l131 -682l125 682l122 -682l129 682h387l-284 -1536h-264z" />
    <glyph glyph-name="X" unicode="X" horiz-adv-x="1155" 
d="M952 764l142 -764h-389l-125 684l-125 -684h-389l139 764l-144 772h394l125 -684l125 684h389z" />
    <glyph glyph-name="Y" unicode="Y" horiz-adv-x="1333" 
d="M668 1057l202 479h402l-420 -967l-6 -569h-381l2 561l-406 975h404z" />
    <glyph glyph-name="Z" unicode="Z" horiz-adv-x="1138" 
d="M1077 1149l-551 -762h430v-387h-895v389l545 760h-360v387h831v-387z" />
    <glyph glyph-name="bracketleft" unicode="[" horiz-adv-x="950" 
d="M225 1679h512v-274h-235v-1548h235v-267h-512v2089z" />
    <glyph glyph-name="backslash" unicode="\" horiz-adv-x="960" 
d="M489 -412l-305 2028h285l309 -2028h-289z" />
    <glyph glyph-name="bracketright" unicode="]" horiz-adv-x="950" 
d="M737 1679v-2089h-512v267h228v1548h-228v274h512z" />
    <glyph glyph-name="asciicircum" unicode="^" horiz-adv-x="1107" 
d="M209 596l346 426l348 -426l-164 -133l-184 215l-184 -215z" />
    <glyph glyph-name="underscore" unicode="_" horiz-adv-x="1107" 
d="M1044 -195v-215h-981v215h981z" />
    <glyph glyph-name="grave" unicode="`" 
d="M872 2263l164 -135l-327 -389l-164 133z" />
    <glyph glyph-name="braceleft" unicode="{" horiz-adv-x="720" 
d="M84 748h59v335q0 34 3 71t14.5 96.5t31 112t58 110.5t89 100t129.5 71.5t175 34.5v-274q-59 0 -103 -26t-66 -60.5t-35 -81t-16 -75.5t-3 -56l-8 -264q0 -93 -84 -144l-103 -55l84 -51q46 -29 73.5 -78.5t27.5 -101.5v-53t-0.5 -54.5t-1 -47t-0.5 -35.5v-13
q0 -159 68 -250.5t167 -101.5v-267q-75 1 -147 26t-136 77t-112.5 125.5t-76.5 178t-28 226.5v307h-59v218z" />
    <glyph glyph-name="bar" unicode="|" horiz-adv-x="737" 
d="M227 1638h287v-2127h-287v2127z" />
    <glyph glyph-name="braceright" unicode="}" horiz-adv-x="737" 
d="M653 748v-218h-59v-307q0 -122 -28 -226.5t-76.5 -178t-112.5 -125.5t-136 -77t-147 -26v267q99 10 167.5 101.5t68.5 250.5v203q0 53 26.5 102t71.5 78l84 51l-102 55q-84 51 -84 144l-11 264q0 28 -2.5 56.5t-15.5 75t-34.5 81t-65.5 60.5t-103 26v274q96 -5 175 -34.5
t129.5 -71.5t89 -100t58 -110.5t31 -112t14.5 -96.5t3 -71v-335h59z" />
    <glyph glyph-name="exclamdown" unicode="&#xa1;" horiz-adv-x="737" 
d="M152 1507q0 69 51.5 120.5t120.5 51.5q71 0 124.5 -51.5t53.5 -120.5q0 -70 -53.5 -121t-124.5 -51q-69 0 -120.5 51t-51.5 121zM211 0v1264h233v-1264h-233z" />
    <glyph glyph-name="dieresis" unicode="&#xa8;" horiz-adv-x="1521" 
d="M176 1903q0 85 60 145.5t145 60.5t148 -61t63 -145t-63 -144.5t-148 -60.5t-145 60t-60 145zM940 1903q0 85 61 145.5t146 60.5t145 -60.5t60 -145.5t-60 -145t-145 -60t-146 60t-61 145z" />
    <glyph glyph-name="acute" unicode="&#xb4;" 
d="M872 2263l164 -135l-327 -389l-164 133z" />
    <glyph glyph-name="ordmasculine" unicode="&#xba;" horiz-adv-x="927" 
d="M98 1292q0 138 99 239t237 101q139 0 244.5 -101.5t105.5 -238.5t-105.5 -238.5t-244.5 -101.5q-138 0 -237 101t-99 239z" />
    <glyph glyph-name="questiondown" unicode="&#xbf;" horiz-adv-x="1060" 
d="M348 1507q0 69 49.5 120.5t118.5 51.5q70 0 120 -51t50 -121q0 -72 -49.5 -122t-120.5 -50q-69 0 -118.5 50t-49.5 122zM61 410v4q0 31 7.5 71.5t30.5 96.5t58.5 103.5t99.5 86.5t146 51v447h242v-656h-131q-56 -6 -98 -28.5t-63 -53.5t-30.5 -59.5t-9.5 -54.5
q0 -67 22 -107.5t71 -81.5q47 -26 104 -26q38 0 73.5 13t72.5 42.5t65.5 87.5t42.5 139h4l229 2q2 0 2 -2q-3 -105 -29 -190.5t-63 -139t-87 -93t-92.5 -58.5t-89 -30t-67.5 -13t-36 -2h-54q-40 0 -96 18.5t-96 42.5q-221 122 -228 390z" />
    <glyph glyph-name="Agrave" unicode="&#xc0;" 
d="M512 2028l246 -297l-123 -103l-250 297zM897 1536l242 -1536h-396l-36 233h-164l-35 -233h-395l237 1536h547zM571 512h99l-29 217h-33z" />
    <glyph glyph-name="Aacute" unicode="&#xc1;" horiz-adv-x="1148" 
d="M676 2030l125 -105l-248 -295l-125 101zM848 1536l239 -1536h-395l-37 233h-163l-35 -233h-396l240 1536h547zM520 512h101l-31 217h-33z" />
    <glyph glyph-name="Adieresis" unicode="&#xc4;" horiz-adv-x="1146" 
d="M123 1751q0 64 49.5 111t114.5 47q63 0 108 -46.5t45 -111.5q0 -63 -45 -108.5t-108 -45.5q-65 0 -114.5 46t-49.5 108zM707 1751q0 65 45.5 111.5t109.5 46.5q65 0 113.5 -47t48.5 -111q0 -63 -48.5 -108.5t-113.5 -45.5q-64 0 -109.5 45.5t-45.5 108.5zM846 1536
l239 -1536h-393l-35 233h-168l-34 -233h-394l238 1536h547zM520 512h98l-28 217h-33z" />
    <glyph glyph-name="AE" unicode="&#xc6;" 
d="M635 0l-33 233h-170l-31 -233h-395l240 1536h1356v-387h-441v-217h340v-361h-340v-184h514v-387h-1040zM463 510h108l-39 217h-30z" />
    <glyph glyph-name="Ccedilla" unicode="&#xc7;" horiz-adv-x="1083" 
d="M614 -41l56 -39l-252 -295l-123 103l190 231q-82 3 -149 24t-110 51.5t-75 72t-49 79.5t-26.5 81t-12 69.5t-2.5 50.5v21v718v17q0 24 2.5 50t13 70.5t28.5 84t53.5 83.5t82.5 74.5t121.5 51t165.5 20.5h15h8q93 0 168 -20.5t123 -51.5t83.5 -75t53.5 -83t28.5 -84.5
t12.5 -70.5t2 -49v-187h-385v183q0 4 -1 10t-6 18t-13.5 21t-27.5 16.5t-44 7.5h-15q-27 0 -45.5 -8t-26 -21t-10 -22t-2.5 -18v-4v-742v-2q0 -7 2.5 -15.5t10.5 -22t28 -22.5t50 -9h6q25 0 44 7t28 15.5t14.5 20t6.5 17t1 9.5v2v183h385v-183q0 -21 -1 -39.5t-9 -63.5
t-22 -82t-44.5 -83.5t-72 -79.5t-108.5 -58.5t-151 -31.5z" />
    <glyph glyph-name="Egrave" unicode="&#xc8;" horiz-adv-x="1015" 
d="M461 2023l246 -297l-125 -100l-246 295zM442 1147v-217h338v-359h-338v-184h512v-387h-893v1534h824v-387h-443z" />
    <glyph glyph-name="Eacute" unicode="&#xc9;" horiz-adv-x="1019" 
d="M676 2028l127 -103l-250 -297l-125 105zM440 1149v-217h342v-361h-342v-184h518v-387h-897v1536h828v-387h-449z" />
    <glyph glyph-name="Edieresis" unicode="&#xcb;" horiz-adv-x="1040" 
d="M61 1753q0 64 49.5 111t114.5 47q63 0 108.5 -46.5t45.5 -111.5q0 -64 -45.5 -109t-108.5 -45q-65 0 -114.5 45t-49.5 109zM649 1753q0 64 46.5 111t109.5 47q64 0 110 -46.5t46 -111.5q0 -64 -45.5 -109t-110.5 -45q-64 0 -110 45t-46 109zM465 1149v-217h338v-359h-338
v-186h514v-387h-895v1536h823v-387h-442z" />
    <glyph glyph-name="Igrave" unicode="&#xcc;" horiz-adv-x="571" 
d="M186 2005l252 -297l-133 -106l-244 294zM145 0v1536h365v-1536h-365z" />
    <glyph glyph-name="Iacute" unicode="&#xcd;" horiz-adv-x="550" 
d="M365 2005l124 -104l-241 -302l-129 109zM61 0v1536h367v-1536h-367z" />
    <glyph glyph-name="Idieresis" unicode="&#xcf;" horiz-adv-x="1085" 
d="M61 1614q0 69 49 118.5t117 49.5q69 0 120.5 -49.5t51.5 -118.5q0 -68 -51 -117t-121 -49q-68 0 -117 48.5t-49 117.5zM684 1614q0 68 52 118t122 50q68 0 117 -49.5t49 -118.5t-49 -117.5t-117 -48.5q-70 0 -122 49t-52 117zM344 0v1384h399v-1384h-399z" />
    <glyph glyph-name="Ntilde" unicode="&#xd1;" horiz-adv-x="1124" 
d="M756 1792v-162h-385v162h385zM434 0h-373v1536h480l143 -573v573h379v-1536h-428l-201 639v-639z" />
    <glyph glyph-name="Ograve" unicode="&#xd2;" horiz-adv-x="1085" 
d="M465 2021l248 -297l-123 -104l-250 297zM1024 391q0 -23 -2.5 -49.5t-13 -71t-28.5 -83.5t-53 -82.5t-82 -74.5t-120.5 -51t-163.5 -20h-33q-89 0 -162 19.5t-120.5 50t-83 72.5t-54.5 81.5t-30 83.5t-14 71.5t-3 51.5v756q0 23 2.5 49t13 70.5t28.5 84t53.5 82.5t83 74
t121.5 51.5t165 20.5h33q90 0 163.5 -20t120.5 -51t82 -74t53 -82t28.5 -84t13 -71t2.5 -50v-754zM639 397v746q0 5 -1 11t-6.5 18t-14.5 21.5t-28 16.5t-44 7q-26 0 -45 -8t-28 -17.5t-14 -22t-6 -18t-1 -8.5v-746q0 -4 1 -10t6 -18t14 -21t28 -16.5t45 -7.5q25 0 44 7
t28 16t14.5 20.5t6.5 17.5t1 10v2z" />
    <glyph glyph-name="Oacute" unicode="&#xd3;" horiz-adv-x="1087" 
d="M682 2019l125 -102l-250 -295l-123 100zM1026 393q0 -23 -2.5 -49.5t-13.5 -71t-29 -84.5t-53.5 -83t-83 -74t-121.5 -51.5t-164 -20.5h-31q-89 0 -162 19.5t-120.5 50t-83.5 72.5t-54.5 81t-29.5 83t-14 71t-3 51v756q0 23 2.5 49t13 70.5t28.5 84.5t53.5 83.5t83 74.5
t121.5 51.5t165 20.5h31q90 0 164 -20.5t121.5 -51.5t83 -74t53.5 -83t29 -84.5t13.5 -71t2.5 -49.5v-750zM637 397v742q0 7 -2.5 16t-10.5 23.5t-29 24t-52 9.5q-26 0 -45 -7.5t-28 -16.5t-14 -21t-6 -18t-1 -10v-742q0 -4 1 -9.5t6 -17.5t14 -21.5t28 -17t45 -7.5t45 7
t28 16t14 21t6 18t1 11z" />
    <glyph glyph-name="Odieresis" unicode="&#xd6;" horiz-adv-x="1087" 
d="M96 1757q0 65 47 111.5t113 46.5q64 0 112 -47t48 -111t-48 -109.5t-112 -45.5q-66 0 -113 45.5t-47 109.5zM682 1757q0 64 46.5 111t109.5 47q64 0 109.5 -46.5t45.5 -111.5t-45.5 -110t-109.5 -45q-63 0 -109.5 45.5t-46.5 109.5zM1026 391q0 -23 -2.5 -49t-13 -70.5
t-28.5 -84t-53.5 -82.5t-83 -74t-121.5 -51.5t-165 -20.5h-31q-89 0 -162 19.5t-120.5 50t-83 72.5t-54.5 81.5t-30 83.5t-14 71.5t-3 51.5v754q0 23 2.5 49t13 70.5t28.5 84.5t53.5 83.5t83 74.5t121.5 51.5t165 20.5h31q91 0 165 -20.5t121.5 -51.5t83 -74.5t53.5 -83
t28.5 -84t13 -70.5t2.5 -50v-752zM639 397v742q0 7 -2.5 16t-10.5 23.5t-29 24t-52 9.5q-26 0 -45.5 -7.5t-29 -16.5t-14.5 -21t-6 -18t-1 -10v-742q0 -4 1 -10t6 -18t14.5 -21t29 -16.5t45.5 -7.5q25 0 44 7t28 16t14.5 20.5t6.5 17.5t1 10v2z" />
    <glyph glyph-name="Ugrave" unicode="&#xd9;" horiz-adv-x="1099" 
d="M467 2028l248 -297l-125 -103l-250 297zM547 -41h-17q-91 0 -165 20t-121.5 51t-83.5 74t-54 82.5t-29 84.5t-13.5 72t-2.5 52v19v1122h390v-1126q0 -4 1 -10t6 -19t14.5 -23t29 -18t45.5 -8q27 0 47 8t29 19.5t14.5 23t6.5 19.5l1 8v1126h393v-1122v-15q0 -22 -2.5 -48
t-13.5 -71t-29 -85.5t-54.5 -85t-84.5 -76.5t-124 -53t-169 -21h-14z" />
    <glyph glyph-name="Uacute" unicode="&#xda;" horiz-adv-x="1101" 
d="M684 2032l127 -105l-250 -297l-125 103zM549 -41h-17q-91 0 -165.5 20t-122.5 51t-83.5 74t-54 82.5t-29.5 84.5t-13.5 72t-2.5 52v19v1122h392v-1124q0 -5 1 -11t6 -19t14.5 -22.5t29 -17.5t45.5 -8q27 0 47.5 8t30 19.5t15 23t6.5 19.5l1 8v1124h391v-1122v-13
q0 -23 -2 -49t-13 -71.5t-29 -86t-54 -85t-84.5 -76.5t-124 -53t-168.5 -21h-16z" />
    <glyph glyph-name="Udieresis" unicode="&#xdc;" horiz-adv-x="1521" 
d="M168 1753q0 65 45 111.5t109 46.5q66 0 112.5 -46.5t46.5 -111.5t-46.5 -110.5t-112.5 -45.5q-64 0 -109 45.5t-45 110.5zM750 1753q0 64 48 111t113 47t111.5 -46.5t46.5 -111.5q0 -64 -46.5 -110t-111.5 -46t-113 46t-48 110zM608 -41h-14q-91 0 -165.5 20t-122.5 51
t-83.5 74t-54 82.5t-29.5 84t-13.5 71.5t-2.5 51v19v1124h391v-1124q0 -5 1 -11t6 -19.5t14 -23.5t28 -18t45 -8q27 0 47 8t30 20t16 24t7 20l1 8v1124h391v-1124v-13q0 -23 -2 -48.5t-13 -71t-29 -85.5t-54.5 -84.5t-85 -76.5t-124.5 -53t-169 -21h-15z" />
    <glyph glyph-name="agrave" unicode="&#xe0;" 
 />
    <glyph glyph-name="aacute" unicode="&#xe1;" 
 />
    <glyph glyph-name="divide" unicode="&#xf7;" horiz-adv-x="727" 
d="M141 1047q0 84 61 144t146 60t145 -59.5t60 -144.5t-60 -146t-145 -61t-146 61t-61 146zM815 721v-211h-897v211h897zM145 176q0 85 60.5 147t144.5 62q85 0 148 -62t63 -147q0 -84 -63 -145.5t-148 -61.5t-145 61t-60 146z" />
    <glyph glyph-name="NameMe.27" unicode="&#x2013;" horiz-adv-x="1107" 
d="M1044 612v-215h-981v215h981z" />
    <glyph glyph-name="NameMe.28" unicode="&#x2018;" horiz-adv-x="458" 
d="M387 1425q0 -91 -61.5 -154t-151.5 -63q-91 0 -154 63t-63 154q0 43 20 88v3q18 39 66 75l262 314l164 -144l-152 -178q70 -60 70 -158z" />
    <glyph glyph-name="NameMe.29" unicode="&#x2019;" horiz-adv-x="458" 
d="M39 1688q0 91 61.5 154t151.5 63q91 0 154 -63t63 -154q0 -44 -20 -89v-2q-18 -39 -66 -75l-262 -314l-164 144l152 178q-70 60 -70 158z" />
    <glyph glyph-name="NameMe.30" unicode="&#x201c;" horiz-adv-x="1304" 
d="M479 1399q0 -111 -82 -180l176 -209l-190 -164l-303 360q-52 39 -74 86l-2 4q-22 49 -22 103q0 104 72.5 177t176.5 73t176 -73t72 -177zM1051 1399q0 -111 -82 -180l174 -209l-189 -164l-303 360q-51 38 -73 86l-3 4q-22 49 -22 103q0 104 73 177t177 73t176 -73
t72 -177z" />
    <glyph glyph-name="NameMe.31" unicode="&#x201d;" horiz-adv-x="288" 
d="M76 1399q0 104 72 177t176 73t176.5 -73t72.5 -177q0 -54 -22 -103l-2 -4q-22 -47 -74 -86l-303 -360l-190 164l176 209q-82 69 -82 180zM647 1399q0 105 71 177.5t175 72.5t177 -73t73 -177q0 -52 -23 -103l-2 -4q-23 -50 -71 -86l-304 -360l-190 164l176 209
q-82 69 -82 180z" />
    <glyph glyph-name="diez" horiz-adv-x="1167" 
d="M1077 1364q29 -58 29 -125v-1026q0 -30 -6 -51q-30 -101 -99 -142q-35 -20 -63 -20h-213h-8q-104 0 -168 55v-47h-131v6q0 -4 -2 -4h-203l-2 2v1469q-9 -13 -19 -25.5t-19.5 -23t-18.5 -19t-18 -16.5t-16 -13.5t-15 -11t-12 -8.5t-9 -6.5t-6 -3.5h-4q0 1 -1 2t-1 2
l-11 24q0 7 2 7q30 12 66 50.5t57 70.5l21 32l2 2h209l102 -67v-31q16 20 25 29q69 75 211 69q5 0 65 -6q101 -18 174 -72q58 -48 82 -102zM217 16h195v1522h-201q-15 -30 -58 -84t-85 -70l8 -22q12 6 30 18t48.5 42.5t54.5 66.5q0 2 4 2t4 -4v-1471zM549 66v-3
q60 -57 168 -57q176 0 237 64q59 56 62 225l8 917q12 170 -55 246q-41 44 -90 60l-48 12q-27 5 -75 8h-17q-125 0 -190 -68q-55 -55 -70 -147q-7 -45 -2 -123v-18v-901q0 -56 5 -83q13 -76 57 -124l8 -8h2zM418 16h125v45l-11 11q-46 50 -59 137q-2 13 -2 72v899q0 12 -2 18
q0 2 -1 30.5t0 50.5t5 44q13 76 43 119h-2v31l-96 63v-1520zM1100 213v1026q4 57 -29 123q-24 52 -80 98q-27 20 -51 31q12 -8 33 -29q70 -76 55 -250l-4 -917q-6 -175 -63 -232q-45 -45 -138 -57h115q28 1 61 21q65 40 95 137q6 21 6 49zM797 1303q10 -11 14 -28.5t3 -29
t-3 -14.5l2 -932q0 -41 -22 -63q-20 -13 -37 -13h-6q-18 1 -29.5 5.5t-17 13.5t-7.5 16t-4 21q-1 3 -2 10.5t-2 11.5q-3 14 -3.5 159t0.5 304.5t2 312t1 154.5q0 48 21 69q17 21 45 21q30 0 45 -18zM782 240q11 9 17.5 23.5t6.5 24.5l1 11l-2 934q9 42 -14 65q-17 17 -39 17
q-25 0 -41 -19q-10 -10 -15 -26t-4 -26v-11v-2v-41q-1 -40 -1.5 -102t-1 -143.5t-0.5 -165.5t-0.5 -167t0 -148.5t1.5 -109.5t2 -51q1 -4 2 -11.5t2 -10.5q2 -18 5 -26.5t14.5 -16t32.5 -9.5q20 -3 34 11z" />
    <glyph glyph-name="once" horiz-adv-x="1998" 
d="M897 47h61q7 0 7 -6v-35q0 -6 -7 -6h-768q-6 0 -6 6v37q0 6 6 6h84v1387l-165 -166q-3 -4 -7 0l-39 41q-4 4 0 8l201 215q2 2 4 2h623q6 0 6 -6v-1483zM1866 47h65q6 0 6 -6v-35q0 -6 -6 -6h-770q-6 0 -6 6v37q0 1 2.5 3.5t3.5 2.5h84v1387l-164 -166q-4 -4 -8 0l-41 41
q-4 4 0 8l205 215q0 2 4 2h621q4 0 4 -6v-1483zM190 6h609v35h-76q-6 0 -6 6v1483h-449l-200 -215l38 -39l164 164q2 2 6 2q5 0 5 -6v-1389q0 -6 -7 -6h-84v-35zM805 6h153v35h-63q-4 0 -4 6v1483h-166v-1483h74q6 0 6 -6v-35zM1163 6h606v35h-73q-6 0 -6 6v1483h-449
l-203 -215l39 -39l166 164q0 2 6 2q2 0 2 -6v-1389q0 -6 -4 -6h-84v-35zM1776 6h155v35h-65q-4 0 -4 6v1483h-166v-1483h73q7 0 7 -6v-35z" />
    <glyph glyph-name="doce" horiz-adv-x="2011" 
d="M1772 276h167q11 0 11 -10v-258q0 -8 -11 -8h-167v2q-2 -2 -7 -2h-761q-11 0 -11 10v250l2 6l14 14q14 13 31.5 30t41 41t51 55t53.5 63q174 203 231 389v2q-1 0 -2 1t-2 1q-49 -12 -117 -2q-100 12 -168 68q-105 94 -102 280q0 117 51 193q43 66 123 104q100 43 223 31
q173 -6 289 -70q95 -54 152 -141q29 -43 46 -92t19 -77l2 -28q0 -161 -61 -329q-52 -145 -135 -273q-95 -158 -187 -250h217q5 0 7 -2v2zM897 49h64q6 0 6 -6v-37q0 -6 -6 -6h-771q-4 0 -4 6v37q0 6 4 6h84v1387l-163 -164q-5 -4 -9 0l-39 39q-3 6 0 6l203 217q0 2 4 2h621
q6 0 6 -6v-1481zM1769 10v256q0 2 -4 2h-376q-6 0 -9 6q0 7 2 11q70 86 147.5 203t120 190t44.5 80q128 289 75 493q-15 54 -43 101.5t-47.5 68t-36.5 33.5q-52 52 -186 72q-145 22 -252 -27q-81 -35 -121 -102q-51 -73 -51 -189q0 -188 101 -276q67 -54 163 -66
q72 -8 117 2q4 0 6 -4q2 -2 2 -8q-51 -178 -229 -391q-41 -51 -87.5 -100t-71 -72.5t-32.5 -30.5q-2 0 -2 -2v-250q0 -4 5 -4h761q4 0 4 4zM193 6h606v37h-74q-6 0 -6 4v1483h-449l-202 -213l38 -39l166 162q2 2 7 2q2 -2 2 -6v-1387q0 -6 -5 -6h-83v-37zM805 6h153v37h-61
q-6 0 -6 4v1483h-166v-1481h74q6 0 6 -6v-37zM1858 1323q-57 89 -150 137q-83 48 -209 64q103 -23 150 -64l8 -8l11 -11t12 -13t14 -16.5t14 -18.5t15 -22t14.5 -24.5t14 -28.5t11.5 -31.5t11 -35.5q56 -203 -74 -497q0 -3 -43.5 -76.5t-122 -191.5t-148.5 -205v-5h3h151
q99 99 193 254q81 134 131 271q60 165 63 327q0 11 -2.5 30t-20 70.5t-46.5 94.5zM1942 8v258q0 4 -3 4h-165v-4v-256v-4h165z" />
    <glyph glyph-name="trece" horiz-adv-x="1273" 
d="M1210 649q8 -163 -8 -381q-12 -143 -106 -219q-58 -49 -154 -63q-18 -2 -51 -2h-29v2q-12 -2 -39 -2q-137 0 -223 63q-26 18 -39 37v-86h-123h-2h-213q-4 0 -4 4v1477q-17 -24 -36 -45.5t-36.5 -36t-30.5 -24t-24 -16.5l-12 -7h-4l-4 4l-11 26v2q0 4 5 4q31 12 68.5 50.5
t59.5 71.5l21 32l2 2h223l74 -76v70q0 6 6 6h565l-2 -2l78 -74q4 -4 2 -8l-135 -471q91 -32 141 -117q11 -19 19.5 -40t11 -31.5t2.5 -12.5q4 -49 8 -137zM225 4h209v1532h-213q-12 -19 -29 -43t-55 -62.5t-69 -50.5l10 -22q80 40 139 129q2 2 6 2q2 0 2 -4v-1481zM819 -8
q131 -3 174 49q42 42 68 100q37 70 37 176v508q-3 43 -23 88q-17 38 -49 64q-32 29 -94 39h-4l149 520h-557v-213h258q4 0 6 -2v-6l-131 -473h117q34 0 55 -17q48 -39 45 -145v-354q0 -21 -10 -41q-22 -39 -57 -39q-47 0 -66 22q-26 23 -26 86l-209 -6q-2 -17 -0.5 -53.5
t16.5 -97.5t43 -101q17 -26 43 -45q77 -59 215 -59zM1022 987l135 473l-76 74l-145 -512q47 -8 86 -35zM440 4h115v90q-61 87 -61 254q0 6 8 6l209 6q6 0 6 -6q1 -59 23 -80.5t63 -21.5q23 0 38.5 18.5t20 34t4.5 21.5v352q0 103 -43 143q-11 9 -24.5 13t-20.5 4h-8h-117
q-4 0 -6 2v4l131 473h-217v-959h-6v959h-35q-6 0 -6 6v135l-74 74v-1528zM1196 270q10 137 10 377l-10 139q-8 39 -33 82q-38 74 -129 109q28 -25 47 -62q23 -52 23 -90v-508q0 -107 -37 -180q-22 -48 -70 -100q-30 -34 -104 -47q121 0 201 65q90 74 102 215z" />
    <glyph glyph-name="catorce" horiz-adv-x="1202" 
d="M1020 510h121v-209h-131v-301h-340v301h-142v-301h-305q-4 0 -4 4v1471q-27 -38 -60.5 -69t-50 -41.5t-28.5 -16.5q-4 -4 -4 0q-2 0 -4 2l-11 24v4q0 2 5 2q31 12 68.5 50.5t59.5 71.5l21 32l2 2h311v-403l181 403h311v-1026zM225 1479v-1473h209v295h-178v221l178 400
v608h-215l-7 -9q-6 -9 -11.5 -17t-15.5 -21.5t-19.5 -25t-22.5 -24.5t-24.5 -23.5t-25 -19.5t-25.5 -14l10 -22q11 5 29.5 17t51 42.5t58.5 67.5q0 2 4 2t4 -4zM899 309h129v195h-125v1026h-192l-449 -1010v-211h412v-303h225v303zM522 1122v408h-84v-600l86 192h-2z
M1012 510v1020h-105v-1020h105zM702 1085v-575h-270zM440 516h256v543zM1034 309h101v195h-101v-195zM438 6h84v295h-84v-295zM905 6h99v295h-99v-295z" />
    <glyph glyph-name="quince" horiz-adv-x="1218" 
d="M1122 991q32 -51 35 -139v-498q0 -80 -31 -164q-21 -70 -69 -118q-53 -55 -139 -68h-3l-141 -4h-29h-16q-117 6 -180 78q-2 2 -10.5 12t-12.5 16v-96h-305q-4 0 -4 4v1461q-26 -38 -59.5 -69t-52 -42.5t-25.5 -13.5l-4 -2l-4 2l-11 26q0 4 2 6h3q30 12 67 50t59 70l21 32
l2 2h311v-1178h158l2 -4v-2q1 -20 3 -33.5t8.5 -33t21.5 -30.5t37 -13q30 0 41 14q12 10 18 27.5t6 30.5v12v3q-4 309 0 459q0 67 -37 101q-8 6 -17 11t-17.5 8t-18 4.5t-18.5 2.5t-16.5 1t-14.5 -0.5t-12 -1t-8 -0.5l-3 -1h-4v623h484v-233h-176v-205q41 0 94 -33
q45 -30 65 -74zM223 16h207v1514h-213q-8 -15 -27 -41t-55.5 -63.5t-66.5 -49.5l10 -22q89 53 137 127q2 2 6 2q2 0 2 -4v-1463zM520 16v101q-35 56 -47 141q-4 24 -5.5 48t-1.5 36l1 12v4h53v1172h-84v-1514h84zM553 84q63 -72 176 -78l51 2q115 9 181 84q33 33 53.5 72
t25.5 67q9 24 9 50v524q7 63 -13 131q-15 59 -51 98q-48 48 -121 60h-4v215h166v221h-362v-608l14 1q15 1 27 1q52 -5 83 -31q39 -33 39 -105q-4 -149 0 -459v-3q0 -52 -26 -74q-16 -16 -45 -16q-20 2 -34.5 11t-22 20t-12 28.5t-5.5 27.5t-2 27v2h-207q0 -59 6 -94
q17 -110 74 -174zM1133 1309v221h-101v-221h101zM1120 193q14 36 21 76.5t7 62.5l1 22v498q0 71 -31 135q-25 48 -65 72q-50 33 -95 33h-2v211h-90v-203q73 -12 123 -62q37 -37 53 -100q4 -14 7 -28.5t4.5 -27t2 -24t0.5 -21v-16v-11.5l-1 -5v-524q0 -28 -8 -52
q-20 -78 -80 -143q-54 -57 -138 -76l86 2q83 9 138 64q46 46 67 117z" />
    <glyph glyph-name="dieciseis" horiz-adv-x="1280" 
d="M1214 614v-6q1 -5 1.5 -15.5t1.5 -27t1.5 -42.5t0 -58t-1.5 -78.5t-3 -99.5q-5 -97 -31 -158t-81 -96q-51 -32 -125.5 -45.5t-185.5 -16.5q-4 2 -9 2q-18 0 -26 2v-2q-8 0 -21 -1t-18 -1q-62 0 -123 23q-59 20 -96 63q-37 37 -56 80v-139q0 -4 -4 -4h-215q-4 0 -4 4v1477
q-26 -38 -61 -70t-50.5 -41.5t-27.5 -15.5q-4 -2 -8 2l-11 26q0 6 2 6q14 6 30 17t30.5 25t28 29.5t25 30t20 26t13.5 18.5l5 8h227v-238q23 76 78 138q72 80 205 98q29 4 58.5 5t44.5 0l14 -1v-2h18q168 -3 252 -96q40 -43 60 -104t22 -93.5t0 -56.5q0 -6 -6 -6l-311 2v2
v19.5t-7.5 35.5t-23.5 33q-33 20 -94 -17q-13 -17 -20 -39.5t-8 -36.5l-1 -14v-270q25 14 63.5 23t66.5 12l28 4q148 6 235 -78q65 -63 86 -160q4 -20 7 -39.5t3.5 -30.5t1.5 -12zM596 -2q58 -21 131 -21q-58 12 -100 46q-54 42 -88 118q-16 36 -26.5 78t-12.5 66l-2 24v735
v7q1 40 2 59.5t8.5 77t19.5 97t37 89.5t60 84q58 58 153 74q-15 0 -51 -4q-131 -18 -201 -98q-35 -37 -55.5 -82t-24.5 -68t-4 -41v-1081q13 -52 62 -97q38 -45 92 -63zM225 0h211v297h-2v1233h-215q-2 -2 -18.5 -24t-35.5 -45.5t-46.5 -48.5t-50.5 -34l10 -24q1 1 8.5 5.5
t14.5 9t18.5 13t23 18.5t24 22.5t25.5 28.5t25 34q3 3 6 0q2 -2 2 -4v-1481zM1206 289q5 118 5.5 198t-1.5 103.5t-4 23.5q0 35 -8 82q-26 96 -86 154q-85 85 -231 76q-105 -6 -158 -39l-6 -4v282q0 68 45 111q41 44 117 41q28 -3 53 -21q53 -34 53 -110h203q2 25 0 57
t-21.5 91.5t-58.5 101.5q-85 91 -248 94h-12q-140 0 -219 -76q-123 -123 -123 -403q0 -7 -2 -7v-735q4 -86 41 -166q28 -70 86 -116q65 -50 160 -47q114 3 186 15.5t121 43.5q54 33 79.5 93.5t28.5 156.5zM883 1186h94q3 70 -49 104q-10 7 -22.5 12.5t-19.5 7.5l-7 1
q-77 0 -113 -39l-2 -2q51 26 86 8q22 -16 31 -55q2 -16 2 -37zM858 707q72 0 107 -43q32 -36 39 -105q0 -15 -1 -29t-1.5 -22.5t-0.5 -9.5v-176q0 -31 -16 -62q-38 -63 -127 -67h-12q-63 0 -98 32q-44 49 -39 121v78q-2 27 -2 74q2 6 2 18q0 80 20 121q6 13 21 31l2 2
q37 37 106 37zM995 322v178q1 12 2 30.5t-7 61.5t-29 67q-35 41 -105 41q-45 0 -74 -16q25 8 47 6q30 -5 54 -39q18 -27 18 -67v-252q0 -31 -10 -58q-21 -60 -66 -63h-14q-17 0 -37 4q31 -19 82 -16q90 6 123 65q7 12 11 26.5t4 23.5zM715 344q-6 -70 39 -115l4 -4
q16 -10 67 -8q18 1 32 13t21 28t11 35t5 28t1 13v252q0 37 -18 61q-19 31 -48 37q-17 3 -36 -2.5t-29 -12.5l-10 -7q-34 -38 -39 -146q0 -12 -2 -18q0 -47 2 -74q0 -9 0.5 -25.5t0.5 -30t-1 -24.5z" />
    <glyph glyph-name="diecisiete" horiz-adv-x="1224" 
d="M1077 1534l86 -86l-2 -2l-325 -1446h-613q-4 0 -4 4v1471q-27 -38 -60.5 -69t-50 -41.5t-28.5 -16.5q-4 -4 -4 0q-2 0 -4 2l-11 24q0 6 5 6q31 12 68.5 50.5t59.5 71.5l21 32l2 2h221v-2l86 -80v76q0 6 6 6h543q4 0 4 -2zM225 6h209v1524h-215l-7 -9q-6 -9 -11.5 -17
t-15.5 -21.5t-19.5 -25t-22.5 -24.5t-24.5 -23.5t-25 -19.5t-25.5 -14l10 -22q11 5 29.5 17t51 42.5t58.5 67.5q0 2 4 2l4 -4v-1473zM512 6h229l332 1524h-543v-215h244q2 0 2 -4zM438 1526v-1520h68l20 98h-2v1338zM748 6h83l324 1440l-78 78zM635 1225h119l16 84h-233z
M633 1219l-103 86v-1178l222 1092h-119z" />
    <glyph glyph-name="dieciocho" horiz-adv-x="1245" 
d="M1159 737q25 -73 25 -166v-292q-4 -69 -35 -132q-21 -60 -64 -96q-49 -46 -114 -49q-84 -8 -166 -8q-49 0 -72 2l-67 2q-20 0 -41 6q-23 6 -47 17.5t-53.5 34.5t-53.5 63t-35 92v-207q0 -4 -4 -4h-209q-4 0 -4 4v1466q-60 -82 -141 -122q-4 -4 -4 0q-4 0 -4 2l-9 24
q0 4 2 6h3q14 6 29.5 17.5t29.5 25.5t27.5 29t24.5 29.5t19.5 26t13.5 18.5l5 8v2h221v-735q13 34 47 57q26 23 43 23q-28 15 -45 57q-12 30 -12 47q0 1 -0.5 6t-1.5 15.5t-2 26t-1 41v56.5t1.5 76t3.5 97q3 104 76 165q57 52 155 62q14 2 80 2q127 13 226 -27
q50 -20 73 -43q4 -1 9.5 -5.5t15 -20t17.5 -39t14.5 -66.5t7.5 -98l2 -217q0 -24 -23 -66q-31 -63 -86 -76q35 -12 68 -47q36 -39 55 -90zM1178 279v292q0 93 -27 164q-14 49 -53 88q-16 18 -34.5 30.5t-29.5 15.5l-10 3l-18 5l18 2q61 6 92 73q21 41 21 64v4q0 5 0.5 13
t1 19.5t0.5 29v39t-0.5 50.5t-1.5 62q-2 125 -33 188q-5 14 -12 23t-11 12l-4 2h-2q-24 23 -71 41q-108 38 -222 27q-57 -5 -116 -39q-42 -28 -66 -68q-14 -21 -23 -44.5t-11.5 -35t-2.5 -14.5v-19t0.5 -44.5t0.5 -60v-73t-1 -73.5q-4 -76 31 -137q7 -13 15.5 -22.5
t12.5 -13.5l5 -3l8 -7h-10q-43 3 -74 -28q-15 -15 -27 -37t-18 -44t-10 -41t-6 -32l-1 -14q1 -2 2 -33.5t1 -98t-3 -143.5q-3 -120 27 -202q22 -65 78 -133q46 -52 139 -62.5t238 4.5q63 3 110 47q40 37 64 95q12 27 20 59.5t10.5 49t2.5 20.5zM225 8h205v1522h-211
q-10 -16 -29 -41.5t-56 -62.5t-68 -50l10 -22q85 49 141 127q2 2 4 2q4 -4 4 -6v-1469zM666 4h24q-64 14 -100 59q-56 66 -83 141.5t-24 196.5q1 27 1.5 54t1 49t0.5 43t-0.5 38t-0.5 31.5t-0.5 25t-1 18.5t-0.5 12v4q3 30 11 65q17 73 53 109q32 29 69 29q-10 6 -28 34
q-33 56 -31 142q0 20 0.5 42t0.5 42.5v40.5v38v34.5t-0.5 29.5t-0.5 22.5v15.5v5q0 3 2.5 14.5t11.5 35.5t23 46q26 41 70 72q36 23 86 35q-128 0 -201 -64q-68 -56 -74 -161q-10 -265 0 -316q1 -10 4.5 -25.5t19.5 -43.5t38 -33l12 -2l-12 -2q-25 -9 -50 -27
q-51 -36 -51 -88v-514q6 -62 29 -109.5t54.5 -74t57 -39.5t50.5 -19q18 -6 39 -6zM766 1075q0 6 -2 10q-1 11 -1.5 29t0 33.5t1.5 28.5v14q0 28 6 57q19 59 64 62q49 3 71 -19q19 -22 19 -76q0 -14 -0.5 -28.5t-0.5 -27v-23.5t0.5 -19.5t0.5 -14.5v-10v-4q0 -35 -19 -57
q-22 -22 -61 -22q-25 0 -41 5.5t-23 17.5t-9.5 20t-4.5 24zM846 1303h-12q-9 0 -27 -9h6q12 0 25 -22q13 -26 10 -111q0 -11 -0.5 -23.5t-1 -21.5t-1 -16.5t-1.5 -11.5v-5q0 -46 -27 -57q-4 -2 -12 -2q-6 0 -10 2q15 -12 49 -12q37 0 57 20q17 22 17 53q-2 57 0 127
q0 52 -17 72q-20 17 -55 17zM786 1270q-16 -29 -16 -80q-4 -74 0 -103q2 -4 2 -12q4 -31 14 -43q17 -9 27 -2q10 4 16.5 18t7.5 22.5t1 12.5q13 144 -7 187q-9 18 -20 18q-4 0 -10.5 -4.5t-10.5 -9.5zM834 719q65 3 106 -35q43 -45 43 -125v-211q-2 -34 -20 -67
q-35 -68 -115 -68h-4q-88 3 -125 43q-21 32 -27 100q-2 41 -2 85.5t1.5 80t2.5 37.5q0 7 -1 23t8 45t26 49q40 43 107 43zM977 348v211q0 78 -41 121q-41 33 -94 33h-8q-4 0 -12.5 -1t-12.5 -1q22 -4 41 -17q44 -30 41 -127q-2 -42 -2 -178v-45q-3 -84 -47 -111
q-10 -8 -31 -12q5 0 16 -1t17 -1q78 0 112 64q8 14 13 30t7 25zM700 356q3 -65 23 -96q16 -16 35 -24q53 -15 82 2q40 26 43 106v45q0 136 2 178q3 92 -39 123q-16 11 -36 12.5t-32 -2.5l-12 -4q-22 -11 -35 -24q-16 -20 -24 -48t-7 -46v-17v-2q-6 -125 0 -203z" />
    <glyph glyph-name="diecinueve" horiz-adv-x="1263" 
d="M1186 1313q24 -133 14 -477q-2 -89 -5 -206t-5 -192t-2 -76q0 -91 -35 -174q-37 -82 -94 -122q-74 -59 -189 -68h-41q-23 0 -63 4l-4 -1q-4 -1 -11 -2t-16 -2t-21 -2t-24 -1q-31 0 -61 6q-68 9 -113 41q-53 38 -78 98v-135q0 -4 -4 -4h-211q-4 0 -4 4v1469
q-50 -71 -139 -125q-4 -4 -4 0q-4 0 -4 2l-11 24q0 4 2 6q14 6 30 17t30.5 25t28 29.5t25 30t20 26t13.5 18.5l5 8v2h223v-147q15 33 66 84q48 46 158 59q52 6 83 2q10 2 29 2q220 0 324 -82q72 -55 88 -141zM508 1468q-57 -55 -70 -98v-631q17 -70 78 -112q40 -32 113 -45
q63 -13 123 -4q-28 3 -66 16q-109 39 -170 170q-15 35 -22.5 125t-7 152t0.5 79q0 64 11 125q26 145 98 217q49 52 113 66q-141 -5 -201 -60zM225 6h207v1522h-213q-92 -129 -151 -154l10 -20q12 5 30.5 16.5t51 42t57.5 68.5q2 2 4 2q4 -4 4 -6v-1471zM1194 836
q10 336 -12 477q-17 81 -88 137q-100 78 -318 78h-2q-106 0 -176 -70q-69 -73 -94 -213q-5 -30 -7.5 -61t-2.5 -46v-16q0 -292 28 -356q57 -126 166 -166q84 -32 193 -10q92 21 92 28l6 3v-193l1 -7q0 -7 0.5 -16t0.5 -21t-1.5 -26.5t-4.5 -27.5q-10 -51 -39.5 -82
t-71.5 -37q-66 -11 -110 18q-20 18 -29.5 40.5t-9.5 35.5h-191q-6 -41 8 -96q22 -74 66 -121q62 -68 166 -80h2q58 -7 104 -2q110 6 187 64q61 48 90 120q17 39 26.5 82t10.5 66v24zM860 1311q53 0 86 -37q41 -47 41 -164v-176q0 -51 -37 -90q-41 -35 -102 -35h-2
q-68 0 -107 39q-32 32 -32 80v182l-1 4v11v14.5t1 18t3 20t5 21.5t7.5 22t11 22.5t14.5 20.5q41 47 112 47zM981 936v174q0 113 -41 160q-26 33 -80 33q-22 0 -47 -7q37 0 51 -32q7 -13 10.5 -51t3.5 -86t-1.5 -92t-3 -79t-1.5 -36q0 -46 -30 -72q-20 -17 -54 -17h-18
q32 -16 76 -16q62 0 98 33q37 35 37 88zM727 872q13 -19 29 -30q54 -12 82 10q14 12 21.5 29t8.5 28v11v3q14 298 -8 339q-18 28 -45 28q-7 1 -13.5 0t-11.5 -2l-4 -2q-15 -7 -34 -29q-46 -52 -39 -146v-1v-182q0 -27 14 -56zM862 336v244q-46 -7 -84 -5v-2q-30 -6 -73 -6
q-37 0 -78 6q-62 14 -115 48q-54 41 -74 96v-406h283v-2q0 -29 22 -59q50 -32 76 -19q17 8 28 34.5t13 48.5zM969 330q4 22 5 46.5t0 37.5l-1 14v182q-30 -15 -92 -26q-2 0 -6.5 -1t-6.5 -1v-246q0 -9 -2 -26.5t-14 -46t-31 -38.5q-12 -4 -22 -4q-17 0 -33 8q39 -23 96 -14
q44 9 74 43q26 37 33 72zM631 6q47 -8 117 -2q-95 18 -154 80q-48 49 -64 111t-12 110h-80v-149q28 -72 82 -109q42 -31 111 -41z" />
    <glyph glyph-name="veinte" horiz-adv-x="1239" 
d="M1178 1264q-4 -82 -4 -331t1.5 -460t2.5 -219q0 -42 -4 -64q-13 -69 -58 -122q-71 -68 -198 -68h-27h-6q-6 -1 -16.5 -1.5t-20.5 -0.5q-6 0 -17 1t-16 1q-85 6 -127 37q-8 6 -16 22v-59h-596l2 4v234l268 884q1 3 3 7.5t5.5 17t5 23.5t-0.5 23t-9 19q-12 17 -47 9
q-4 -21 -0.5 -46.5t9.5 -40.5l5 -16l2 -4h-208q-40 30 -50 119l5 82q17 90 75 151q51 48 121 62q36 10 76.5 12t63.5 -1l22 -3q168 -31 233 -143q5 31 27 55q52 69 182 72q176 3 256 -74q62 -65 56 -182zM86 8h582v66q0 3 -1 8t-1 8h2v137h-275l2 4l211 613v4h2l60 174
q18 51 24 121q17 142 -35 237q-64 119 -233 150h-5q-5 1 -13.5 2t-20 1.5t-25.5 0.5t-29.5 -1t-33 -3t-33.5 -6q-68 -17 -119 -62q-55 -55 -73 -147l-2 -82q4 -82 43 -113h196q-5 11 -10 31t-4.5 49t12.5 49q22 31 72 37q55 0 78 -33q44 -57 -15 -219q-4 -12 -4 -14z
M1171 1264q3 119 -53 178q-77 74 -252 71q-128 -4 -178 -67q-24 -28 -24 -62q51 -98 34 -241q-4 -31 -10.5 -62t-11.5 -46l-4 -15l-60 -172h2v-615h58v-143q0 -29 20 -49q54 -44 198 -33h1q143 -9 221 66q64 70 57 178v2v30q0 31 -0.5 80t-1 114.5t-0.5 139.5v151.5v153
t0.5 140.5t1.5 118t2 83zM352 1120l-268 -884v-213l348 999q0 2 4 14q57 161 15 213q-22 31 -72 31q-45 -3 -66 -33q-7 -11 -10 -22q39 9 53 -8q12 -12 9.5 -36.5t-6.5 -39.5t-7 -21zM903 1264q24 0 41 -17q19 -22 19 -82v-870q0 -3 -1 -8.5t-4.5 -19t-9.5 -23.5
t-18.5 -18.5t-28.5 -8.5q-26 0 -41 14.5t-17.5 26.5t-2.5 25v882v4q-1 4 -1 8.5v11t1.5 13.5l3 14t5.5 14t9 13q15 21 45 21zM958 295v870q0 57 -18 78q-14 14 -37 14q-30 0 -39 -18q-11 -11 -15.5 -29t-3.5 -30l1 -13v-2v-882q0 -12 3 -24t16.5 -24t35.5 -12q34 0 49 37z
M514 557v-324h92v594zM510 545l-107 -312h107v312z" />
    <glyph glyph-name="ventiuno" horiz-adv-x="1214" 
d="M580 1513q120 -36 153 -110q40 -81 31 -201q-9 -89 -64 -317q-17 -72 -41.5 -158t-49.5 -165.5t-45 -140.5t-38.5 -115t-19.5 -58h258v-238h-690l356 1018q1 2 2 7t2 7q35 113 32 164q-2 31 -15 49q-46 3 -60 -20q-11 -19 -6 -45t12.5 -44.5t10.5 -21.5l2 -2h-304
q-40 32 -43 119q-2 19 -2 39.5t1 31.5l1 11q18 92 76 147q49 46 121 64q13 3 27 5.5t26.5 3.5t24.5 2t22.5 1t20 -0.5t17 -1t12.5 -1t8 -1.5h4q21 -3 47 -10q52 -3 111 -19zM82 18h580v222h-269l269 788q20 53 28 125q14 142 -37 236q-66 117 -233 147q-78 15 -158 -8
q-73 -19 -119 -62q-58 -55 -73 -145l-2 -80q4 -82 43 -113h196q-6 11 -11 31t-4.5 49.5t13.5 48.5q21 35 74 35t74 -30q42 -53 -13 -220l-4 -14zM1153 1540v-1540h-324q-6 0 -6 4v1454q-16 -34 -59 -51l-2 -2h-6q0 2 -2 4l-11 25q0 6 5 6q19 10 33 23.5t21.5 25.5t12 24
t5.5 17.5t1 7.5v2h332zM829 6h209v1528h-213q-11 -65 -75 -100l10 -23q53 26 61 59q0 5 4 5l4 -5v-1464zM1044 6h103v1528h-103v-1528zM756 1204q11 112 -29 197q-37 77 -149 106q-40 12 -84 17q111 -40 165 -133q54 -97 37 -240q-4 -32 -11 -62.5t-12 -45.5l-5 -15
l-267 -780h99q0 1 39 115.5t83.5 261t71.5 262.5q56 230 62 317zM387 1239q16 22 57 25q-22 22 -65 22q-49 0 -70 -31q-5 -8 -8 -18.5t-3 -22v-21.5t2.5 -21.5t4 -18t3.5 -15.5l3 -10h88q-8 11 -14 37q-15 49 2 74zM758 18v222h-90v-222h90z" />
    <glyph glyph-name="veintidos" horiz-adv-x="1261" 
d="M1194 1133q-4 -34 -12 -68t-14 -51l-5 -17l-231 -739h248v-4l12 -254h-1106l2 6l2 236v2l244 815l6 18q29 93 23 130q-4 21 -17 32q-12 15 -27 12q-7 -1 -24 -18l-6 -29v-82h-228v84v58q0 33 29 105.5t92 121.5q113 84 283 39q95 -23 153 -90q36 46 105 80q53 19 115 22
q32 2 65 -1t51 -7l17 -4q132 -34 190 -139q53 -99 33 -258zM94 6h500l-10 246h-168l233 747l3 7q2 7 6 19.5t8 28.5t8.5 37.5t7.5 43.5q14 158 -35 251q-55 103 -184 140q-168 43 -277 -39q-60 -46 -96 -129q-22 -67 -22 -94v-56h215q10 59 43 82q30 21 75 6q36 -8 54 -41
q18 -40 6 -100q-9 -45 -17 -53zM922 252l2 4l235 743l2 7q2 7 5.5 19.5t7 28t7.5 37.5t7 44q22 151 -33 251q-54 103 -186 140q-7 2 -18.5 4t-46 5t-66.5 1q-66 -3 -113 -23q-65 -27 -100 -77q18 -26 28 -45q41 -85 39 -183h96q10 59 43 82q33 20 78 6q36 -9 52 -41
q18 -40 6 -100q-9 -45 -17 -53l-348 -1096h582l-10 246h-252zM590 254l10 -240l344 1090q2 4 4 10.5t7.5 25t8 36t0.5 39t-10 36.5q-15 31 -47 39q-42 14 -71 -6q-20 -13 -33 -47q20 10 33 6q14 -6 20 -20q6 -19 -31 -150q-14 -50 -24 -100zM340 1057l-242 -815l-4 -215
l344 1077q2 4 4 10t7.5 25t7.5 36t1 38.5t-9 37.5q-15 31 -50 39q-39 14 -69 -6q-20 -13 -29 -35q8 8 16 8q20 3 35 -14q37 -35 -8 -168q-1 -3 -2 -9t-2 -9zM801 1229l-6 -25v-82h-111q-2 -20 -6 -39.5t-8 -34t-7.5 -26.5t-5.5 -18l-2 -7l-231 -739h160l211 717
q3 18 12 52.5t12 47.5q38 132 31 146t-16 16q-19 6 -33 -8zM68 1202v-74h215v74h-215zM788 1202h-96q0 -32 -6 -69v-5h102v74z" />
    <glyph glyph-name="veintitres" horiz-adv-x="1273" 
d="M1212 1536v-4l-165 -539q30 0 73 -35q36 -33 51 -73q23 -57 23 -133v-523q0 -9 -2 -25t-18 -55.5t-44 -68.5q-80 -80 -231 -80q-180 0 -262 51q-15 12 -33 35l4 -86h-520l2 6l2 242l244 829q2 5 6 19q13 36 19 57t7 55t-16 49q-15 15 -28 15q-7 -2 -14 -7.5t-10 -10.5
l-3 -5l-6 -24v-86h-230v86v57q0 36 29.5 110t93.5 124q113 84 285 38q100 -24 156 -86v70h583q4 0 4 -2zM94 6h508l-10 250h-172l239 760q23 57 33 135q14 163 -35 258q-55 104 -188 139q-167 45 -281 -37q-68 -52 -96 -135q-24 -63 -24 -94v-53h217q10 60 47 80q30 23 76 8
q41 -13 51 -43q17 -36 8 -98l-14 -56zM1038 989v2l168 541h-573v-74q20 -24 31 -45q26 -55 34 -119h199l-2 -4l-162 -499q15 5 51 14q87 18 134 -17q8 -7 14.5 -16t10 -18t5.5 -18t2.5 -17.5t0.5 -14t-1 -10.5v-6q0 -1 0.5 -65t0.5 -131v-129.5t-1 -71.5v-6q-1 -18 -3 -29
t-8.5 -29t-22 -27.5t-39.5 -9.5q-45 0 -64 54l-6 20q-4 32 -4 35h-230v-37h25l6 -156q2 -24 37 -49q78 -51 258 -51q153 0 225 78q28 28 44 64t18 58l2 23v523q0 81 -23 131q-18 46 -49 71q-16 14 -34.5 22t-29.5 10l-10 1zM342 1075l-244 -829l-4 -226l352 1100l2 6
q2 6 4.5 15t5.5 21.5t5 26.5t2 28t-2 28.5t-8 26.5q-10 26 -49 39q-45 12 -72 -6q-22 -16 -31 -37q11 8 21 10q12 2 32 -14q39 -37 -8 -170q-4 -14 -6 -19zM700 1214h164l25 74h-191q4 -46 2 -74zM68 1145h217v78h-217v-78zM862 1208h-162q0 -17 -4 -57q-4 -36 -11.5 -70
t-12.5 -51l-6 -16l-236 -752h137v43h242v-4q0 -17 4 -35v-2q1 -2 2 -7t2 -7v-2q4 -8 8 -10q8 -8 23 -5q17 4 19.5 78.5t-5.5 134.5v273q3 38 -20 61q-22 22 -58 19q-9 -2 -29 -8.5t-26 -8.5l-6 -2zM868 719v-273q6 -6 6 -106q0 -107 -24 -113q-4 -2 -10 -2q-11 0 -15 2
q17 -28 52 -28q21 0 35 8t20 24.5t7.5 26t2.5 27.5v6q0 6 0.5 30.5t0.5 59.5v76t-0.5 81.5t-0.5 73.5v54v22q2 2 2.5 18t-7 39.5t-24.5 38.5q-36 28 -102 19q22 -3 35 -19q12 -11 18 -27.5t5 -25.5t-1 -12z" />
    <glyph glyph-name="veinticuatro" horiz-adv-x="1275" 
d="M1100 1536v-985h114v-240h-94v-311h-327v311h-351l-14 -47h166l12 -260h-518l2 4l2 242l244 825l6 17q45 128 10 163q-16 13 -30 13q-20 -7 -25 -21l-6 -28v-84h-230v84v59q0 36 29.5 109.5t93.5 123.5q112 83 283 39q135 -38 192 -143q29 -56 37 -139l84 268h320z
M598 10l-10 248h-168l18 59l217 697l3 7q2 7 6 19.5t8 28.5t8.5 37.5t7.5 42.5q4 60 2 100v2q-3 88 -37 154q-52 104 -186 139q-168 43 -279 -39q-68 -52 -96 -133q-24 -63 -24 -94v-55h217q11 63 45 82q29 20 78 8q33 -12 49 -43q18 -37 6 -101q-11 -53 -17 -53l-352 -1106
h504zM662 1012l-218 -695h64l377 1213h-101l-88 -281q2 -39 -4 -102q-2 -21 -6 -42.5t-8 -37.5t-7.5 -28.5t-6.5 -19.5zM1112 317h96v228h-114v985h-203l-375 -1213h385v-311h211v311zM342 1075l-244 -825l-4 -227l346 1095q2 0 10 26t11.5 59.5t-10.5 64.5q-17 31 -45 39
q-44 11 -74 -7q-20 -14 -29 -36q7 7 19 10q14 2 34 -14q7 -7 11 -17t5.5 -19t0.5 -23t-2 -22.5t-5 -24.5t-5.5 -22.5t-6.5 -22.5t-6 -19zM68 1143h217v76h-217v-76zM901 922v-375h-123zM786 555h107v328zM799 311v-305h94v305h-94z" />
    <glyph glyph-name="veintiseis" horiz-adv-x="1275" 
d="M1212 588q6 -99 -2 -195q-4 -53 -11 -105.5t-12 -77t-7 -30.5q0 -39 -35 -90q-60 -91 -191 -110q-51 -7 -82 -7q-25 0 -81 9q-59 14 -99 43q-19 16 -28 34l2 -59h-578l2 2h-2l4 240l240 817q4 8 6 16q45 125 10 160q-15 15 -29 12q-14 -2 -24 -18q-2 -5 -3.5 -11
l-2.5 -10t-2 -6h2v-84h-228v84v58q0 35 29 107.5t92 121.5q112 82 281 39q88 -24 143 -76q10 34 51 51q38 16 88 25q78 6 113 2l33 2q147 -3 221 -90q22 -27 37.5 -61t21 -63.5t8 -56t1.5 -41.5t-2 -18q0 -2 -4 -2h-275q-4 0 -4 2l1 3v7v9t-1 10q-7 29 -21 37q-20 17 -51 12
q-12 -13 -17.5 -32.5t-5.5 -32.5l1 -13v-295q64 24 141 17q65 -3 125 -35q60 -35 100 -117q33 -72 45 -184zM96 6h563l-10 244h-235l235 747q21 57 31 133q22 152 -33 256q-61 103 -184 136q-168 43 -277 -39q-61 -46 -89.5 -117.5t-28.5 -105.5v-56h215q0 10 6 25h-2
q2 2 2 4q12 36 37 53q30 21 73 6q38 -8 54 -41q18 -37 6 -98q-1 -13 -4.5 -26t-6.5 -21l-4 -8zM1204 393q19 241 -43 377q-39 77 -98 113q-56 32 -121 35q-24 2 -44.5 0.5t-39 -4t-31 -5.5t-20.5 -5l-8 -3l-4 -2v301q0 58 24 84q22 28 62 31q39 3 63 -21q35 -31 35 -90h192
q14 144 -63 234q-70 82 -217 88q-11 0 -27 -2h-6q-20 0 -47 -6q-86 -18 -129 -58q-31 -36 -29 -71q54 -106 35 -259q-4 -35 -12 -68.5t-14 -49.5l-5 -17l-49 -153v-586h49l7 -174q0 -25 32 -51q36 -29 95 -41q65 -16 163 -4q79 14 123 43q35 22 64 63q13 21 21 43.5t10 32.5
t2 14q20 90 30 211zM817 1524q-184 0 -207 -76q22 -22 37 -49q3 37 31 65q42 42 133 60h6zM879 1274q24 -21 24 -70h70q0 57 -33 86q-22 22 -57 19q-33 -3 -54 -21q30 3 50 -14zM340 1057l-242 -815l-2 -217l342 1077q2 4 4 10.5t7 25t7 36t0 39t-10 36.5q-12 27 -49 39
q-40 12 -69 -8q-17 -11 -27 -35q8 8 18 8q15 3 33 -12q8 -8 12.5 -18t4.5 -24.5v-23.5t-4.5 -28.5t-6 -25.5t-8.5 -27l-6 -21q-4 -12 -4 -16zM68 1200v-74h215v74h-215zM524 571v-315h80v571l-82 -256h2zM985 559v-213q0 -72 -29 -106q-27 -30 -65 -33h-6q-28 0 -47 16
q-6 3 -13 10l2 3q-21 21 -30 67v43v195v6v10v25q1 23 2 35t6.5 32t14.5 30t28 18t45 8q25 0 43 -9t27 -20t14 -32t6 -33.5t2 -35.5v-16zM952 244q15 17 21.5 42.5t6.5 42.5l-1 17v213v16q-1 23 -2 34.5t-5.5 31t-13 29.5t-25 18t-40.5 8q-46 0 -68 -22q20 16 33 16
q14 3 27 -10q14 -18 14 -35v-15v-40t0.5 -54.5t0.5 -63.5v-64t-0.5 -59t-0.5 -46q0 -21 -8 -49q-8 -27 -25 -37h-2q8 -2 27 -2q38 3 61 29zM803 541v-195q-6 -73 31 -110l6 -7q15 -12 24 -6q25 11 29 80q0 14 0.5 34.5t0.5 43v48v51v49.5t-0.5 44.5t-0.5 35.5v25v9
q0 24 -12 33q-11 8 -23 8q-9 -1 -20 -9t-18 -16l-7 -8q-8 -20 -8 -71q-2 -6 -2 -23v-10v-6zM518 559l-96 -303h96v303z" />
    <glyph glyph-name="veintisiete" horiz-adv-x="1232" 
d="M610 1536h557q1 0 2 -1t2 -1v-4l-423 -1530h-662l2 6l2 238l244 817l6 18q29 94 23 131q-4 20 -15 31q-12 12 -29 12q-7 -2 -13 -7.5t-8 -9.5l-3 -5h-2q-4 -20 -4 -25v-84h-228v88v54q0 36 28.5 108t92.5 121q112 85 283 39q84 -19 145 -80v84zM94 6h568l-13 246h-227
q-4 0 -4 2v2l233 745q21 58 31 134q18 157 -35 254q-13 25 -37 53q-51 60 -147 84q-167 46 -277 -37q-60 -46 -96 -133q-22 -62 -22 -92v-54h215q8 56 45 82q31 21 73 6q39 -12 54 -43q18 -37 6 -98q-10 -48 -17 -55zM668 6h75l420 1524h-545v-86q18 -21 35 -51
q23 -39 31 -86h203v-4l-295 -1045h61q4 0 4 -4zM424 258h72l284 1042h-94q14 -73 0 -165q-4 -35 -11 -69t-13 -50l-5 -17zM791 1300l-287 -1042h80l295 1042h-88zM340 1059l-242 -817l-4 -215l344 1077l2 6q2 5 5 14.5t6 21t5 25.5t2.5 28t-1.5 28t-8 26q-17 31 -48 39
q-45 12 -69 -6q-20 -11 -31 -37q9 9 18 11q12 2 33 -15q37 -35 -8 -168q-4 -12 -4 -18zM68 1204v-74h215v74h-215z" />
    <glyph glyph-name="NameMe.20" horiz-adv-x="567" 
d="M152 2234l327 -389l-164 -137l-327 391zM545 2234l327 -389l-163 -137l-328 391z" />
    <glyph glyph-name="veinticinco" horiz-adv-x="1312" 
d="M670 1542h579q2 0 2 -2v-328q0 -2 -2 -2h-250v-96q68 -10 119 -47q50 -37 76 -88q32 -68 35 -170q1 -46 1.5 -95.5t0 -94t-1.5 -89t-2 -82.5t-2 -72.5t-2 -61t-2 -46t-1 -30.5l-1 -11q-8 -61 -43 -127q-35 -57 -80 -88q-56 -41 -138 -41h-16q-138 0 -203 39
q-43 25 -61 66l4 -80h-594l2 6l2 242l246 839l3 7l5 10q1 3 5.5 19t6.5 23t6 22.5t5 24t1.5 22t-1 22t-5.5 18t-10 15.5q-16 13 -30 10q-7 -1 -13 -6t-8 -10l-2 -5h-2l-6 -26h2v-82h-234v84v57q0 37 30 112t95 126q110 85 287 39q135 -34 197 -146v123zM453 1124l-355 -1120
h578l-12 248h-240l231 735v4h2l9 29q20 59 30 137q19 162 -34 260q-55 104 -191 142q-170 46 -281 -39q-64 -49 -93 -122t-29 -110v-55h221q0 9 6 27h-2l4 4q11 34 33 53q33 20 80 8q38 -11 53 -45q18 -38 6 -98q-10 -52 -16 -58zM1112 1063q-33 25 -66 35t-49 10q-6 0 -6 4
v188h254v236h-479v-647h78q84 0 119 -41q20 -25 20 -68v-461q0 -102 -61 -102q-34 0 -52 21q-24 22 -24 77v2h-219v-57h43l8 -166q14 -35 36.5 -58.5t84.5 -42t159 -16.5q84 3 136 41q41 26 75 86q10 17 17.5 36t12 33.5t7.5 27t4.5 20t1.5 8.5t1 19t2 48t2.5 73t3 93
t2 107.5t1 117t-0.5 122.5q-3 105 -37 166q-23 52 -74 88zM678 1536v-133q42 -102 24 -246q-4 -36 -12 -70t-14 -51l-6 -16l-8 -29v-102h98v647h-82zM346 1081l-248 -837l-2 -221l350 1105q2 0 9.5 25.5t11 58.5t-9.5 64q-14 32 -49 41q-47 13 -74 -6q-14 -9 -27 -35
q5 4 15 8q19 0 36 -14q18 -17 17.5 -53t-6.5 -57.5t-19 -59.5q-4 -16 -4 -19zM999 1217h246v75h-246v-75zM68 1227v-74h221v74h-221zM823 860q-20 23 -61 23h-107v92l-223 -715h189v57q0 7 2 7h223v483q0 33 -23 53zM854 317h-2v-2q0 -54 22 -73q19 -19 48 -19q55 0 55 96
v463q6 33 -19 60q-35 41 -114 41h-41q7 -3 26 -17q25 -25 25 -59v-490z" />
    <glyph glyph-name="veintiocho" horiz-adv-x="1286" 
d="M1225 672v-377q2 -73 -31.5 -153.5t-85.5 -114.5q-32 -22 -57 -28.5t-68 -6.5q-21 0 -31 2h-65q-8 -2 -23 -2q-93 0 -192 37l2 -37h-588l2 6l2 242h2l244 823q3 6 6 18q1 3 5 16t6 19t5.5 19.5t5 21t3.5 20t1.5 20.5t-2 17t-5 16.5t-9.5 12.5q-17 15 -30 12q-7 -1 -14 -6
t-10 -9l-3 -5l-6 -27h2v-84h-230v84v60q0 34 29.5 108t93.5 123q111 83 285 39q86 -24 141 -76q36 56 156 72q26 3 54 3.5t42 -0.5l15 -1v-2q28 4 43 4q80 5 151 -29q50 -30 82 -79q16 -25 27 -54.5t13.5 -44t2.5 -18.5q-2 -121 -2 -254q0 -86 -43 -141q-20 -23 -37 -33
q76 -12 105 -113q6 -29 6 -100zM449 1104l-353 -1104h572l-11 246h-239l110 348v2l117 367v2l12 36l2 7q2 7 5.5 19.5t7 28t7.5 37.5t7 44q22 153 -33 256q-55 104 -186 139q-171 44 -279 -39q-45 -33 -74.5 -86.5t-37.5 -87.5t-8 -53v-54h215q0 9 6 27h2q13 38 37 55
q33 20 78 6q39 -9 51 -43q18 -35 6 -98q-3 -13 -6.5 -26.5t-5.5 -20.5t-2 -8zM1221 674q1 49 -11 98q-25 100 -106 109h-10l10 6q23 10 41 37q43 49 43 135v76t0.5 69.5t1 55t0.5 38.5v15q0 1 -1.5 8t-4.5 18.5t-7 25t-11.5 30t-16.5 30.5q-28 48 -82 78q-62 32 -147 29
q-7 0 -21.5 -1t-21.5 -1v-2h-5q-115 -11 -176 -70q-24 -24 -37 -63q55 -103 33 -258q-4 -35 -11 -69.5t-12 -51.5l-5 -17l-13 -36q19 -76 62 -84l22 -5h-22q-33 -7 -51 -32q-48 -55 -48 -195q4 -232 7 -278q3 -106 10 -117h33l6 -135q10 -29 43 -58q57 -61 151 -59h88
q62 -2 89.5 3t64.5 30q49 32 82 111.5t33 150.5v379zM766 1528q-118 -14 -152 -72q23 -23 41 -53q11 33 37 59q46 49 152 68q-62 0 -78 -2zM852 1030q-25 22 -25 53l-2 107q-2 16 2 39q6 46 29 65q20 23 47 23q41 0 68 -27q26 -28 26 -82v-110q1 -3 2 -12.5t-2.5 -24.5
t-11.5 -25q-17 -23 -55 -26h-15q-43 0 -63 20zM967 1286q-25 25 -64 25q-21 0 -39 -15q16 6 33 -2q15 -9 18 -43q5 -82 5 -164q1 -37 -19 -53q-11 -8 -27 -8h-6q19 -12 62 -12q33 3 49 26q8 10 11.5 24t3.5 23l-1 9v112q0 50 -26 78zM342 1061l-244 -823l-4 -220l348 1088
q3 3 10 27t10 58.5t-11 63.5q-12 30 -48 39q-39 13 -71 -6q-20 -11 -31 -37q16 10 18 11q19 3 37 -15q16 -16 16.5 -48.5t-4.5 -53t-17 -56.5q-2 -7 -3 -10q-3 -12 -6 -18zM856 1286v2q-13 -16 -19 -40.5t-6 -41.5v-16l1 -25q1 -25 2 -46.5t0 -37.5q0 -25 22 -45
q26 -10 41 2q8 7 12 19.5t4 20.5v9l-4 164q-3 33 -16 39q-8 3 -16.5 2.5t-14.5 -3.5zM68 1206v-76h215v76h-215zM608 647q-3 138 49 199q22 27 41 31q-26 10 -41 47q-9 23 -10 26l-110 -354l-2 -170q2 -168 20 -174h70q-8 25 -13 117q-4 140 -4 278zM1004 627v-289
q0 -63 -27 -96q-21 -21 -47 -21h-6q-94 0 -97 103v282q0 58 23 86l2 2l2 2q18 24 57 27q39 0 64 -25q29 -27 29 -71zM973 246q12 15 17.5 38t5.5 38l-1 16v289q0 43 -24 69q-22 19 -58 19h-2q-21 0 -34 -8q4 2 10 2q13 -3 26 -19q11 -17 12.5 -113t-2 -178t-5.5 -98
q0 -36 -21 -51q-8 -8 -25 -8h-4q21 -15 56 -15h4q22 0 45 19zM834 324q3 -48 24 -72q20 -7 35 2q8 6 12.5 18t4.5 20l1 9q5 71 7.5 148.5t0 151t-11.5 87.5q-9 12 -20 12q-8 1 -16 -2t-12.5 -7t-4.5 -5l-2 2q-10 -15 -14 -35.5t-3 -33.5l1 -13v-14q0 -13 -0.5 -34.5t-1 -48
t-0.5 -54.5t-0.5 -53.5t0 -46.5t0.5 -31zM528 426v143l-100 -317h119q-9 9 -12 55q-7 51 -7 119zM670 102l2 -65q40 -20 110 -31q-43 15 -75 47q-25 25 -37 49z" />
    </font>
</defs>
</svg>
